<svg xmlns="http://www.w3.org/2000/svg" xmlns:xlink="http://www.w3.org/1999/xlink" width="375" height="172"
    viewBox="0 0 375 172">
    <defs>
        <filter x="0%" y="0%" width="100%" height="100%" id="f857aee03c">
            <feColorMatrix values="0 0 0 0 1 0 0 0 0 1 0 0 0 0 1 0 0 0 1 0" color-interpolation-filters="sRGB" />
        </filter>
        <mask id="c4bd7d3926">
            <g filter="url(#f857aee03c)">
                <rect x="-144" width="1728" fill="#000000" y="-80.999999" height="971.999992" fill-opacity="0.61" />
            </g>
        </mask>
    </defs>
    <g clip-path="url(#23113c4293)">
        <path fill="#7f6c5f" d="M 0 0 L 375 0 L 375 172 L 0 172 Z M 0 0 " fill-opacity="1" fill-rule="nonzero" />
    </g>
    <g mask="url(#c4bd7d3926)" transform="translate(-155, 0) scale(0.6)">
        <g transform="matrix(1, 0, 0, 1, 601, 0.000000000000039746)">
            <path fill="#ffffff"
                d="M 270.722656 54.546875 C 271.671875 53.855469 272.519531 53.300781 273.195312 52.566406 C 274.484375 51.175781 275.804688 49.777344 276.855469 48.226562 C 278.839844 45.3125 280.828125 42.371094 282.476562 39.253906 C 284.019531 36.332031 285.140625 33.171875 286.410156 30.109375 C 286.488281 29.914062 286.230469 29.570312 286.132812 29.292969 C 285.925781 29.386719 285.628906 29.417969 285.519531 29.582031 C 281.777344 35.003906 276.714844 38.980469 271.351562 42.648438 C 270.53125 43.203125 270.109375 43.683594 270.054688 44.863281 C 269.925781 47.902344 267.898438 49.683594 265.289062 50.949219 C 262.214844 52.4375 259.628906 51.324219 257.164062 49.5625 C 255.867188 48.640625 255.140625 46.316406 255.910156 44.945312 C 257.074219 42.894531 257.925781 40.667969 259.765625 38.996094 C 263.109375 35.972656 266.390625 37.203125 268.777344 39.90625 C 270.738281 42.136719 270.480469 41.992188 272.589844 40.386719 C 276.382812 37.511719 280.085938 34.476562 283.054688 30.691406 C 284.148438 29.292969 285.410156 28.027344 286.527344 26.65625 C 288.128906 24.707031 288.351562 22.199219 289.015625 19.910156 C 290.117188 16.132812 290.988281 12.296875 291.769531 8.441406 C 292.898438 2.890625 293.746094 -2.714844 294.9375 -8.257812 C 295.707031 -11.867188 296.859375 -15.402344 297.886719 -18.96875 C 298.414062 -20.757812 299.046875 -22.515625 299.621094 -24.292969 C 299.683594 -24.507812 299.652344 -24.753906 299.667969 -24.984375 C 299.480469 -24.820312 299.289062 -24.660156 299.105469 -24.480469 C 297.734375 -23.140625 296.3125 -21.835938 294.992188 -20.4375 C 291.355469 -16.589844 287.894531 -12.546875 284.058594 -8.894531 C 282.519531 -7.433594 280.640625 -6.347656 279.753906 -4.308594 C 279.09375 -2.804688 278.457031 -1.292969 277.828125 0.230469 C 277.199219 1.75 275.75 2.910156 275.875 4.769531 C 275.890625 4.988281 275.6875 5.351562 275.492188 5.453125 C 273.828125 6.308594 273.542969 8.121094 272.648438 9.492188 C 270.679688 12.527344 268.851562 15.660156 266.839844 18.671875 C 265.113281 21.25 263.222656 23.742188 261.382812 26.242188 C 257.703125 31.222656 253.539062 35.8125 249.164062 40.175781 C 246.410156 42.929688 243.1875 45.207031 240.160156 47.691406 C 237.078125 50.226562 233.988281 52.75 230.863281 55.234375 C 230.203125 55.753906 229.414062 56.085938 228.667969 56.484375 C 226.902344 57.421875 225.621094 58.605469 225.234375 60.796875 C 224.789062 63.351562 223.683594 65.800781 223.304688 68.363281 C 222.730469 72.222656 222.535156 76.140625 222.167969 80.03125 C 222.074219 81.105469 222.039062 82.199219 221.878906 83.261719 C 221.257812 87.40625 222.328125 91.175781 224.140625 94.871094 C 226.265625 99.171875 228.375 103.523438 229.277344 108.269531 C 229.734375 110.664062 229.785156 113.160156 229.835938 115.609375 C 229.878906 118.195312 230.089844 120.878906 229.511719 123.34375 C 228.710938 126.707031 228.167969 130.234375 226.199219 133.269531 C 225.460938 134.40625 225.261719 135.871094 224.617188 137.074219 C 220.933594 143.839844 215.984375 149.554688 210.136719 154.554688 C 206.445312 157.726562 202.257812 159.996094 197.847656 161.929688 C 195.214844 163.085938 192.535156 164.21875 189.777344 164.96875 C 184.710938 166.351562 179.464844 166.761719 174.226562 166.964844 C 173.304688 167 172.34375 166.375 171.410156 166.0625 C 172.09375 165.390625 172.703125 164.605469 173.492188 164.074219 C 178.148438 160.898438 182.238281 157.023438 185.914062 152.875 C 190.5 147.714844 193.328125 141.636719 193.523438 134.410156 C 193.65625 129.347656 194.082031 124.09375 196.261719 119.457031 C 198.039062 115.652344 199.796875 111.691406 202.8125 108.523438 C 203.988281 107.28125 204.695312 105.640625 205.742188 104.226562 C 208.230469 100.847656 211.207031 98.050781 214.382812 95.398438 C 216.105469 93.957031 217.664062 92.308594 219.386719 90.867188 C 220.234375 90.160156 220.320312 89.304688 220.367188 88.34375 C 220.546875 84.601562 220.667969 80.851562 220.949219 77.109375 C 221.25 73.207031 221.515625 69.289062 222.636719 65.507812 C 223.121094 63.894531 223.632812 62.277344 224.113281 60.664062 C 224.207031 60.347656 224.265625 60.015625 224.347656 59.695312 C 223.996094 59.792969 223.617188 59.820312 223.316406 60.003906 C 219.5625 62.222656 215.933594 64.679688 212.058594 66.644531 C 204.066406 70.671875 195.96875 74.46875 187.875 78.28125 C 184.855469 79.699219 182.613281 82.089844 180.074219 84.101562 C 178.253906 85.542969 176.746094 87.402344 174.878906 88.792969 C 172.867188 90.300781 172.726562 92.585938 171.921875 94.597656 C 170.832031 97.367188 171.070312 100.289062 171.601562 103.078125 C 171.972656 104.976562 173.035156 106.753906 173.867188 108.558594 C 175.679688 112.507812 178.378906 115.78125 181.558594 118.703125 C 181.761719 118.890625 181.796875 119.429688 181.710938 119.734375 C 181.464844 120.578125 180.890625 120.246094 180.488281 119.90625 C 178.945312 118.589844 177.339844 117.335938 175.941406 115.863281 C 173.414062 113.207031 170.609375 110.675781 168.714844 107.601562 C 166.84375 104.582031 164.226562 102.195312 162.5 99.144531 C 162.027344 98.304688 161.957031 98.152344 161.121094 98.964844 C 158.246094 101.730469 155.175781 104.320312 152.222656 107 C 151.296875 107.847656 150.328125 108.699219 149.613281 109.71875 C 147.957031 112.097656 146.558594 114.667969 144.835938 116.984375 C 143.296875 119.050781 141.890625 121.203125 140.277344 123.230469 C 138.675781 125.230469 137.222656 127.375 135.503906 129.3125 C 133.203125 131.90625 130.785156 134.410156 128.679688 137.160156 C 126.652344 139.796875 124.191406 141.921875 121.773438 144.128906 C 117.917969 147.660156 113.464844 150.328125 108.945312 152.835938 C 104.28125 155.429688 99.457031 157.78125 94.625 160.042969 C 91.949219 161.304688 89.132812 162.300781 86.308594 163.195312 C 79.660156 165.285156 72.980469 167.253906 66.300781 169.242188 C 64.503906 169.785156 62.703125 170.28125 60.878906 170.75 C 60.617188 170.816406 60.277344 170.597656 59.976562 170.5 C 60.128906 170.230469 60.230469 169.894531 60.449219 169.707031 C 62.808594 167.734375 64.972656 165.582031 66.503906 162.878906 C 68.640625 159.121094 70.769531 155.371094 72.832031 151.570312 C 74.703125 148.128906 77.449219 145.371094 79.78125 142.285156 C 81.652344 139.828125 83.585938 137.488281 85.695312 135.234375 C 91.328125 129.230469 97.457031 123.902344 104.703125 119.84375 C 108.601562 117.664062 112.550781 115.566406 116.5 113.472656 C 116.738281 113.351562 117.003906 113.304688 117.269531 113.230469 C 123.941406 111.226562 130.578125 109.085938 137.300781 107.265625 C 139.824219 106.582031 142.542969 106.585938 145.179688 106.304688 C 146.957031 106.117188 148.75 106.109375 150.496094 105.808594 C 151.386719 105.65625 152.324219 105.183594 153.007812 104.597656 C 155.277344 102.628906 157.445312 100.550781 159.652344 98.519531 C 161.238281 97.074219 161.308594 97.027344 160.164062 95.527344 C 158.457031 93.273438 157.210938 90.800781 156.171875 88.175781 C 156.046875 87.851562 155.375 87.460938 155.09375 87.542969 C 149.792969 89.105469 144.507812 90.746094 139.222656 92.359375 C 138.625 92.546875 138.015625 92.710938 137.402344 92.875 C 132.46875 94.261719 127.5 95.5625 122.601562 97.066406 C 117.457031 98.660156 112.359375 100.4375 107.253906 102.164062 C 105.761719 102.664062 104.210938 103.089844 102.851562 103.835938 C 101.03125 104.84375 99.101562 105.871094 97.71875 107.363281 C 94.507812 110.800781 90.953125 113.824219 87.417969 116.867188 C 87.039062 117.191406 86.722656 117.605469 86.359375 117.949219 C 85.558594 118.699219 85.179688 119.273438 85.90625 120.511719 C 86.796875 122.039062 87.1875 123.878906 85.652344 125.46875 C 85.351562 125.777344 85.140625 126.222656 84.984375 126.628906 C 83.976562 129.257812 81.785156 129.875 79.316406 129.832031 C 76.28125 129.773438 73.632812 126.558594 74.226562 123.792969 C 75.058594 119.894531 79.027344 117.089844 82.929688 117.886719 C 84.03125 118.109375 84.5 118.105469 85.351562 117.257812 C 88.617188 114.046875 92.070312 111.027344 95.46875 107.933594 C 96.105469 107.347656 96.792969 106.800781 97.453125 106.230469 C 96.234375 105.109375 95.597656 106.625 94.746094 106.910156 C 89.339844 108.71875 83.972656 110.65625 78.601562 112.597656 C 74.425781 114.117188 70.234375 115.640625 66.125 117.320312 C 63.214844 118.519531 60.398438 119.96875 57.59375 121.410156 C 56.921875 121.75 56.226562 122.035156 56.910156 123.433594 C 57.742188 125.113281 57.15625 127.289062 56.324219 129.046875 C 54.097656 133.769531 52.113281 133.996094 47.179688 133.625 C 46.304688 133.554688 45.074219 133.289062 44.667969 132.679688 C 43.59375 131.078125 41.761719 129.527344 42.058594 127.539062 C 42.300781 125.929688 43.429688 124.269531 44.570312 123.007812 C 47.269531 120.027344 50.566406 119.046875 54.390625 120.964844 C 54.789062 121.160156 55.550781 121.179688 55.867188 120.921875 C 59.824219 117.757812 64.75 116.605469 69.195312 114.480469 C 71.246094 113.488281 73.523438 112.992188 75.683594 112.203125 C 81.335938 110.132812 87.125 108.421875 92.601562 105.890625 C 94.351562 105.082031 96.222656 104.554688 98.050781 103.929688 C 100.472656 103.105469 102.90625 102.300781 105.328125 101.476562 C 105.535156 101.410156 105.71875 101.257812 105.902344 101.152344 C 105.707031 101 105.523438 100.726562 105.320312 100.710938 C 104.652344 100.675781 103.96875 100.757812 103.300781 100.75 C 99.09375 100.714844 94.996094 100.007812 90.976562 98.792969 C 90.738281 98.71875 90.488281 98.632812 90.246094 98.582031 C 87.816406 98.121094 87.8125 98.132812 85.96875 99.789062 C 84.144531 101.429688 80.335938 101.996094 78.144531 100.851562 C 77.234375 100.371094 76.257812 99.824219 75.609375 99.050781 C 73.863281 96.960938 74.199219 94.332031 76.375 92.582031 C 80.234375 89.492188 84.234375 90.199219 87.285156 93.640625 C 87.5 93.890625 87.722656 94.222656 87.761719 94.527344 C 87.941406 96.742188 89.523438 96.65625 91.214844 97.238281 C 96.382812 98.996094 101.746094 99.101562 107.027344 99.601562 C 109.21875 99.8125 111.652344 99.363281 113.976562 98.382812 C 117.410156 96.929688 121.183594 96.257812 124.789062 95.195312 C 125.949219 94.859375 127.027344 94.222656 128.183594 93.886719 C 131.199219 92.984375 134.25 92.164062 137.277344 91.3125 C 140.386719 90.4375 143.480469 89.566406 146.589844 88.691406 C 147.191406 88.519531 147.820312 88.378906 148.402344 88.171875 C 149.796875 87.671875 151.175781 87.121094 152.566406 86.621094 C 152.972656 86.480469 153.417969 86.433594 153.847656 86.394531 C 155.601562 86.234375 155.660156 86.226562 155.183594 84.621094 C 153.730469 79.722656 154.246094 74.859375 155.722656 70.121094 C 156.394531 67.9375 157.960938 66.027344 159.058594 63.96875 C 159.410156 63.320312 159.558594 62.570312 159.800781 61.863281 C 159.054688 61.839844 158.304688 61.824219 157.546875 61.792969 C 157.128906 61.785156 156.683594 61.847656 156.292969 61.742188 C 151.628906 60.390625 147.453125 62.035156 143.261719 63.8125 C 139.738281 65.300781 136.125 66.542969 132.617188 68.054688 C 130.523438 68.949219 128.582031 70.199219 126.519531 71.167969 C 125.636719 71.589844 125.335938 71.96875 125.6875 72.953125 C 126.484375 75.175781 126.113281 77.363281 124.535156 79.054688 C 123.050781 80.644531 121.089844 81.601562 118.808594 81.601562 C 117.976562 81.601562 117.046875 81.730469 116.335938 81.414062 C 113.34375 80.101562 112.339844 77.695312 113.628906 74.417969 C 114.347656 72.582031 115.371094 70.804688 117.105469 69.59375 C 118.722656 68.472656 120.441406 68.015625 122.117188 69.25 C 123.976562 70.628906 125.421875 70.257812 127.394531 69.179688 C 130.859375 67.292969 134.632812 65.988281 138.273438 64.421875 C 140.089844 63.640625 141.875 62.765625 143.753906 62.128906 C 144.972656 61.714844 146.304688 61.648438 147.589844 61.394531 C 147.792969 61.355469 147.960938 61.179688 148.152344 61.0625 C 147.957031 60.910156 147.765625 60.648438 147.5625 60.632812 C 144.734375 60.484375 141.914062 60.3125 139.144531 59.601562 C 138.738281 59.5 138.128906 59.753906 137.757812 60.035156 C 135.863281 61.4375 132.769531 62.40625 130.707031 61.742188 C 129.15625 61.242188 127.824219 60.125 126.609375 59.023438 C 126.257812 58.699219 126.125 57.78125 126.320312 57.285156 C 128.527344 51.507812 133.546875 50.519531 138.148438 54.117188 C 138.867188 54.671875 139.152344 55.917969 139.410156 56.890625 C 139.726562 58.085938 140.339844 58.625 141.582031 58.746094 C 145.632812 59.128906 149.683594 59.640625 153.734375 60.050781 C 155.558594 60.242188 157.398438 60.273438 159.199219 60.527344 C 160.269531 60.675781 160.988281 60.175781 161.515625 59.484375 C 163.308594 57.167969 164.851562 54.640625 166.796875 52.449219 C 168.734375 50.28125 170.867188 48.210938 173.210938 46.511719 C 178.691406 42.570312 184.4375 39.046875 190.75 36.503906 C 194.027344 35.1875 196.789062 32.890625 199.78125 31.046875 C 202.066406 29.640625 204.371094 28.285156 206.667969 26.882812 C 206.9375 26.722656 207.136719 26.441406 207.375 26.222656 C 207.09375 26.191406 206.820312 26.109375 206.554688 26.128906 C 200.632812 26.597656 194.714844 27.050781 188.800781 27.550781 C 185.238281 27.851562 181.691406 28.226562 178.121094 28.5625 C 177.453125 28.625 176.746094 28.582031 176.101562 28.753906 C 167.355469 31.0625 158.65625 33.492188 149.878906 35.683594 C 144.25 37.085938 138.472656 37.792969 132.738281 38.703125 C 125.777344 39.8125 118.730469 40.074219 111.792969 41.25 C 109.96875 41.566406 108.078125 41.59375 106.222656 41.636719 C 103.625 41.699219 101.019531 41.828125 98.445312 41.597656 C 94.972656 41.285156 91.519531 40.6875 88.074219 40.148438 C 82.894531 39.34375 77.71875 38.523438 72.550781 37.625 C 70.574219 37.277344 68.632812 36.695312 66.691406 36.214844 C 64.65625 35.707031 62.628906 35.203125 60.601562 34.644531 C 60.183594 34.535156 59.726562 34.292969 59.457031 33.972656 C 59.304688 33.789062 59.425781 33.054688 59.535156 33.03125 C 60.191406 32.890625 60.890625 32.75 61.558594 32.839844 C 63.304688 33.0625 64.785156 32.511719 66.445312 31.960938 C 70.675781 30.589844 74.589844 28.558594 78.640625 26.832031 C 83.734375 24.660156 88.792969 22.371094 94.019531 20.582031 C 98.390625 19.089844 102.914062 17.828125 107.46875 17.210938 C 115.800781 16.066406 124.214844 16.558594 132.5625 17.242188 C 137.949219 17.683594 143.308594 18.492188 148.621094 19.472656 C 152.835938 20.242188 156.988281 21.347656 161.054688 22.8125 C 163.867188 23.824219 166.90625 24.230469 169.828125 24.96875 C 171.0625 25.28125 172.226562 25.863281 173.464844 26.09375 C 175.503906 26.476562 177.585938 26.980469 179.636719 26.894531 C 185.300781 26.660156 190.960938 26.1875 196.609375 25.734375 C 200.851562 25.398438 205.078125 24.992188 209.3125 24.550781 C 211.960938 24.273438 214.585938 23.886719 217.230469 23.511719 C 220.214844 23.085938 223.210938 22.695312 226.183594 22.164062 C 228.433594 21.765625 230.675781 21.261719 232.890625 20.675781 C 236.460938 19.734375 239.992188 18.683594 243.546875 17.691406 C 246.632812 16.832031 249.375 15.214844 252.207031 13.777344 C 256.710938 11.496094 260.496094 8.15625 264.660156 5.378906 C 264.90625 5.222656 265.019531 4.890625 265.195312 4.625 C 264.886719 4.648438 264.5625 4.621094 264.273438 4.710938 C 259.960938 6.125 255.542969 6.265625 251.046875 6.097656 C 248.484375 6 245.941406 6.261719 243.386719 6.957031 C 236.710938 8.761719 229.964844 10.34375 223.222656 11.871094 C 219.0625 12.808594 214.855469 13.632812 210.632812 14.207031 C 206.777344 14.734375 202.867188 15.046875 198.976562 15.105469 C 193.796875 15.175781 188.609375 15.109375 183.453125 14.710938 C 178.632812 14.34375 173.800781 13.792969 169.199219 12 C 165.726562 10.660156 161.980469 9.9375 158.625 8.378906 C 155.957031 7.136719 153.226562 5.859375 150.980469 3.683594 C 148.472656 1.25 145.476562 -0.667969 142.769531 -2.890625 C 140.421875 -4.8125 138.132812 -6.785156 135.449219 -8.25 C 135.128906 -8.429688 134.917969 -8.882812 134.730469 -9.257812 C 134.570312 -9.570312 134.535156 -9.929688 134.433594 -10.28125 C 134.757812 -10.230469 135.085938 -10.214844 135.394531 -10.109375 C 138.597656 -9.019531 141.59375 -7.453125 145.085938 -7.097656 C 149.691406 -6.628906 154.285156 -6.277344 158.875 -6.929688 C 165.546875 -7.878906 172.179688 -9.210938 178.867188 -10.082031 C 183.304688 -10.664062 187.832031 -11.152344 192.269531 -10.933594 C 196.976562 -10.6875 201.742188 -10.171875 206.324219 -8.769531 C 208.96875 -7.964844 211.683594 -7.355469 214.355469 -6.644531 C 214.601562 -6.578125 214.839844 -6.429688 215.070312 -6.316406 C 218.074219 -4.84375 221.003906 -3.15625 224.113281 -1.949219 C 226.171875 -1.148438 228.070312 0.0585938 230.339844 0.457031 C 231.839844 0.722656 233.265625 1.519531 234.65625 2.203125 C 237.285156 3.492188 240.136719 3.9375 242.949219 4.289062 C 245.839844 4.640625 248.773438 4.527344 251.699219 4.660156 C 257.011719 4.90625 262.230469 4.441406 267.238281 2.613281 C 268.546875 2.136719 269.765625 1.273438 270.820312 0.34375 C 275.074219 -3.398438 279.324219 -7.15625 283.433594 -11.046875 C 286.839844 -14.261719 290.066406 -17.679688 293.355469 -21.03125 C 295.824219 -23.546875 298.214844 -26.136719 300.722656 -28.617188 C 305.238281 -33.082031 309.804688 -37.507812 314.371094 -41.933594 C 317.960938 -45.425781 321.558594 -48.929688 325.1875 -52.386719 C 328.632812 -55.664062 331.914062 -59.160156 335.652344 -62.082031 C 340.722656 -66.023438 345.96875 -69.785156 351.738281 -72.691406 C 354.855469 -74.253906 357.363281 -76.566406 359.859375 -78.910156 C 360.160156 -79.191406 360.683594 -79.320312 360.839844 -79.65625 C 361.335938 -80.660156 361.835938 -79.972656 362.347656 -79.753906 C 362.148438 -79.402344 362.019531 -78.96875 361.71875 -78.710938 C 360.089844 -77.289062 358.273438 -76.054688 356.800781 -74.484375 C 354.683594 -72.238281 352.023438 -70.8125 349.425781 -69.339844 C 345.914062 -67.351562 342.761719 -64.894531 339.460938 -62.648438 C 334.988281 -59.59375 331.554688 -55.476562 327.496094 -52.035156 C 323.613281 -48.75 319.941406 -45.214844 316.277344 -41.695312 C 312.773438 -38.335938 309.449219 -34.792969 305.953125 -31.417969 C 303.757812 -29.308594 302.089844 -27.0625 301.085938 -24.046875 C 299.808594 -20.1875 298.648438 -16.332031 297.558594 -12.40625 C 296.421875 -8.269531 295.496094 -4.101562 294.539062 0.0664062 C 293.78125 3.402344 293.300781 6.792969 292.558594 10.125 C 291.558594 14.617188 290.363281 19.0625 289.414062 23.570312 C 288.914062 25.921875 288.773438 28.351562 288.414062 30.726562 C 287.941406 33.855469 287.410156 36.964844 286.921875 40.097656 C 286.371094 43.636719 285.933594 47.179688 285.621094 50.75 C 285.304688 54.359375 285.742188 57.941406 285.4375 61.53125 C 285.359375 62.445312 285.242188 63.152344 286.722656 63.054688 C 288.953125 62.894531 290.855469 64.300781 292.339844 65.640625 C 293.285156 66.496094 293.425781 68.503906 293.480469 70.011719 C 293.585938 73.113281 290.960938 76.1875 287.890625 76.945312 C 285.246094 77.589844 283.332031 76.304688 281.726562 74.503906 C 279.933594 72.5 279.097656 70.269531 280.722656 67.703125 C 281.648438 66.25 282.132812 64.480469 283.960938 63.730469 C 284.1875 63.632812 284.3125 63.054688 284.320312 62.691406 C 284.328125 58.585938 284.136719 54.480469 284.308594 50.378906 C 284.523438 45.300781 285.261719 40.265625 286.503906 35.316406 C 286.585938 34.996094 286.421875 34.609375 286.367188 34.253906 C 286.140625 34.507812 285.832031 34.726562 285.691406 35.03125 C 285.445312 35.566406 285.378906 36.191406 285.105469 36.699219 C 284.488281 37.902344 283.796875 39.0625 283.136719 40.242188 C 282.472656 41.421875 281.664062 42.542969 281.203125 43.792969 C 280.761719 44.953125 279.945312 45.929688 279.292969 46.847656 C 277.433594 49.453125 275.46875 51.984375 273.804688 54.726562 C 273.613281 55.039062 273.878906 55.769531 273.667969 55.917969 C 271.703125 57.265625 271.390625 59.679688 270.027344 61.382812 C 268.566406 63.183594 267.273438 65.089844 266.21875 67.144531 C 265.800781 67.96875 265.359375 68.902344 265.367188 69.796875 C 265.378906 76.253906 265.476562 82.714844 265.640625 89.171875 C 265.664062 90.183594 265.996094 91.230469 267.269531 91.691406 C 269.378906 92.449219 270.144531 94.5 271.140625 96.242188 C 272.5 98.636719 270.355469 103.898438 266.476562 105.160156 C 264.773438 105.710938 263.101562 106.433594 261.144531 105.605469 C 258.078125 104.292969 257.457031 101.761719 257.039062 98.867188 C 256.558594 95.527344 259.972656 92.78125 262.433594 91.679688 C 264.371094 90.8125 264.324219 90.894531 264.285156 88.652344 C 264.238281 85.46875 264.472656 82.292969 264.308594 79.117188 C 264.179688 76.507812 263.875 73.914062 264.128906 71.296875 C 264.152344 71.085938 263.957031 70.851562 263.859375 70.625 C 263.675781 70.804688 263.453125 70.949219 263.332031 71.160156 C 262.957031 71.78125 262.652344 72.425781 262.265625 73.042969 C 261.472656 74.257812 260.925781 75.304688 262.03125 76.796875 C 262.789062 77.8125 262.523438 79.242188 261.835938 80.488281 C 260.621094 82.707031 259.058594 84.4375 256.492188 85 C 254.617188 85.398438 252.925781 84.675781 251.867188 83.023438 C 250.285156 80.546875 250.40625 78.191406 252.054688 75.707031 C 253.457031 73.609375 255.390625 73.171875 257.640625 73.179688 C 257.976562 73.183594 258.328125 73.128906 258.636719 73.230469 C 260.558594 73.875 260.511719 73.859375 261.472656 72.273438 C 263.871094 68.292969 266.359375 64.382812 268.691406 60.378906 C 269.175781 59.539062 270.574219 59.503906 270.40625 57.972656 C 270.328125 57.253906 271.492188 56.414062 272.023438 55.585938 C 272.246094 55.246094 272.316406 54.792969 272.457031 54.390625 C 272.117188 54.597656 271.777344 54.800781 271.457031 55.015625 C 269.304688 56.441406 267.25 58.050781 264.992188 59.289062 C 261.484375 61.195312 257.859375 62.894531 254.242188 64.597656 C 253.492188 64.953125 253.097656 65.027344 253.046875 66.152344 C 252.898438 69.15625 250.539062 70.773438 248.269531 72.207031 C 246.574219 73.269531 242.085938 72.1875 240.957031 70.710938 C 238.984375 68.125 239.859375 62.617188 242.542969 60.773438 C 242.882812 60.539062 243.234375 60.316406 243.59375 60.078125 C 247.089844 57.785156 250.171875 58.640625 252.265625 61.871094 C 253.144531 63.238281 253.851562 63.382812 255.03125 62.789062 C 260.308594 60.3125 265.835938 58.214844 270.722656 54.546875 M 194.777344 61.648438 C 200.128906 60.140625 205.515625 58.722656 210.832031 57.101562 C 215.117188 55.785156 219.367188 54.3125 223.566406 52.722656 C 227.785156 51.128906 231.695312 48.875 235.683594 46.785156 C 237.636719 45.765625 239.351562 44.390625 241.507812 43.628906 C 243.40625 42.960938 245.132812 41.5625 246.699219 40.203125 C 253.03125 34.710938 258.421875 28.386719 262.914062 21.300781 C 263.890625 19.761719 264.871094 18.1875 266.070312 16.832031 C 268.277344 14.351562 269.894531 11.46875 271.757812 8.769531 C 272.726562 7.367188 273.460938 5.808594 274.285156 4.3125 C 274.898438 3.21875 275.792969 2.175781 276.003906 0.996094 C 276.289062 -0.5625 276.785156 -1.777344 278.09375 -2.675781 C 278.28125 -2.8125 278.257812 -3.246094 278.335938 -3.539062 C 278.035156 -3.527344 277.644531 -3.632812 277.460938 -3.484375 C 276.230469 -2.496094 275.03125 -1.464844 273.859375 -0.402344 C 267.839844 5.007812 261.386719 9.839844 254.53125 14.148438 C 250.507812 16.679688 246.164062 18.554688 241.617188 19.90625 C 235.714844 21.664062 229.664062 22.835938 223.574219 23.800781 C 219.574219 24.429688 215.5625 24.984375 211.570312 25.617188 C 210.796875 25.746094 209.988281 25.984375 209.324219 26.386719 C 206.695312 28.011719 204.113281 29.703125 201.542969 31.402344 C 199.046875 33.058594 196.722656 35.050781 194.058594 36.359375 C 192.425781 37.160156 192.003906 38.289062 192.210938 39.578125 C 192.691406 42.535156 192.667969 45.464844 192.753906 48.429688 C 192.867188 52.324219 192.035156 55.8125 190.292969 59.199219 C 189.722656 60.289062 189.21875 61.414062 188.691406 62.53125 C 189.960938 62.324219 191.234375 62.136719 192.5 61.890625 C 193.089844 61.769531 193.6875 61.554688 194.777344 61.648438 M 64.59375 168.496094 C 69.277344 167.179688 73.957031 165.859375 78.621094 164.546875 C 79.226562 164.378906 79.859375 164.253906 80.433594 164.027344 C 83.914062 162.671875 87.394531 161.339844 90.84375 159.910156 C 94.257812 158.488281 97.660156 157.042969 100.984375 155.457031 C 104.421875 153.820312 107.882812 152.171875 111.125 150.183594 C 114.164062 148.328125 117.003906 146.101562 119.824219 143.910156 C 123.011719 141.445312 125.910156 138.660156 128.433594 135.488281 C 130.488281 132.90625 132.800781 130.539062 134.925781 128.03125 C 136.707031 125.929688 138.375 123.738281 139.964844 121.476562 C 141.964844 118.640625 144.03125 115.855469 145.910156 112.9375 C 146.257812 112.386719 146.925781 112.027344 147.285156 111.484375 C 147.707031 110.832031 147.953125 110.070312 148.285156 109.355469 C 147.714844 109.765625 147.097656 110.140625 146.578125 110.609375 C 145.179688 111.925781 143.804688 113.277344 142.457031 114.648438 C 140.917969 116.210938 139.398438 117.765625 137.9375 119.394531 C 135.621094 121.96875 133.382812 124.628906 131.054688 127.195312 C 129.082031 129.386719 127.042969 131.511719 125.019531 133.640625 C 122.890625 135.882812 120.363281 137.675781 118.042969 139.703125 C 114.1875 143.058594 109.90625 145.574219 105.429688 147.878906 C 101.804688 149.75 98.191406 151.625 94.484375 153.316406 C 90.726562 155.042969 86.867188 156.550781 83.039062 158.152344 C 80.964844 159.015625 78.886719 159.878906 76.789062 160.6875 C 75.867188 161.046875 74.894531 161.273438 73.921875 161.476562 C 73.703125 161.519531 73.414062 161.175781 73.152344 161.015625 C 73.296875 160.8125 73.398438 160.503906 73.59375 160.433594 C 76.710938 159.265625 79.855469 158.183594 82.941406 156.972656 C 86.394531 155.613281 89.851562 154.242188 93.210938 152.671875 C 97.046875 150.882812 100.777344 148.847656 104.550781 146.9375 C 110.335938 144.027344 115.597656 140.371094 120.5 136.148438 C 123.636719 133.445312 126.375 130.417969 129.21875 127.433594 C 132.421875 124.078125 135.382812 120.511719 138.484375 117.082031 C 141.730469 113.507812 144.734375 109.785156 149.261719 107.761719 C 149.4375 107.675781 149.496094 107.34375 149.617188 107.128906 C 149.402344 107.109375 149.203125 107.039062 149.003906 107.066406 C 147.464844 107.273438 145.9375 107.585938 144.402344 107.714844 C 140.414062 108.039062 136.433594 108.386719 132.613281 109.679688 C 127.585938 111.382812 122.523438 112.949219 117.550781 114.765625 C 114.734375 115.792969 111.960938 116.996094 109.375 118.492188 C 104.898438 121.078125 100.410156 123.632812 96.363281 126.953125 C 93.453125 129.335938 90.652344 131.820312 88.007812 134.476562 C 85.898438 136.578125 84.09375 138.972656 82.160156 141.210938 C 78.824219 145.074219 75.765625 149.101562 73.097656 153.410156 C 71.390625 156.171875 70.457031 159.421875 68.648438 162.09375 C 67.351562 164.003906 66.398438 166.382812 64.042969 167.496094 C 63.40625 167.800781 63.546875 168.304688 64.59375 168.496094 M 111.714844 28.703125 C 117.65625 28.527344 123.597656 28.15625 129.460938 27.246094 C 137.597656 25.992188 145.753906 25.960938 153.929688 26.351562 C 158.839844 26.582031 163.738281 26.917969 168.652344 27.195312 C 169.320312 27.234375 169.988281 27.199219 170.660156 27.183594 C 170.820312 27.171875 170.972656 27.074219 171.132812 27.011719 C 170.972656 26.824219 170.816406 26.496094 170.632812 26.476562 C 166.457031 25.910156 162.453125 24.734375 158.40625 23.566406 C 153.84375 22.230469 149.1875 21.226562 144.492188 20.382812 C 139.148438 19.414062 133.753906 18.882812 128.378906 18.570312 C 120.757812 18.128906 113.074219 17.792969 105.476562 19.035156 C 103.320312 19.390625 101.125 19.765625 99.046875 20.429688 C 96.054688 21.371094 93.117188 22.542969 90.191406 23.691406 C 87.703125 24.660156 85.238281 25.714844 82.785156 26.777344 C 78.996094 28.410156 75.242188 30.109375 71.445312 31.710938 C 69.75 32.421875 67.984375 32.953125 66.253906 33.601562 C 66.042969 33.679688 65.878906 33.925781 65.6875 34.089844 C 65.820312 34.203125 65.9375 34.398438 66.078125 34.421875 C 68.71875 34.886719 71.160156 36.03125 73.898438 36.269531 C 77.289062 36.550781 80.621094 37.390625 83.988281 37.941406 C 88.585938 38.6875 93.175781 39.542969 97.796875 40.066406 C 100.777344 40.398438 103.8125 40.214844 106.820312 40.222656 C 108.164062 40.234375 109.53125 40.28125 110.851562 40.0625 C 117.699219 38.875 124.667969 38.683594 131.53125 37.589844 C 137.886719 36.578125 144.269531 35.816406 150.496094 34.085938 C 155.085938 32.800781 159.671875 31.484375 164.273438 30.234375 C 165.085938 30.015625 165.96875 30.042969 166.820312 29.886719 C 168.449219 29.589844 170.082031 29.265625 171.699219 28.890625 C 171.925781 28.835938 172.050781 28.414062 172.234375 28.164062 C 172.007812 28.164062 171.789062 28.152344 171.570312 28.171875 C 170.304688 28.265625 169.03125 28.480469 167.769531 28.417969 C 162.355469 28.175781 156.949219 27.902344 151.546875 27.5625 C 143.421875 27.0625 135.328125 27.550781 127.308594 28.773438 C 122.257812 29.542969 117.191406 29.859375 112.101562 29.847656 C 109.5 29.839844 106.894531 30.015625 104.292969 30.035156 C 102.96875 30.039062 101.625 29.945312 100.308594 29.757812 C 99.855469 29.6875 99.460938 29.183594 99.042969 28.878906 C 99.496094 28.796875 99.957031 28.628906 100.417969 28.636719 C 104.035156 28.511719 107.636719 28.472656 111.714844 28.703125 M 202.464844 134.058594 C 201.191406 136.5 200.320312 139.292969 198.566406 141.308594 C 196.125 144.136719 193.777344 147.144531 190.5625 149.257812 C 189.945312 149.65625 189.488281 150.316406 189.003906 150.902344 C 187.089844 153.167969 185.507812 155.914062 183.175781 157.605469 C 180.003906 159.898438 177.828125 163.507812 173.863281 164.746094 C 173.722656 164.796875 173.582031 165.222656 173.632812 165.40625 C 173.691406 165.582031 174.027344 165.8125 174.222656 165.792969 C 178.480469 165.28125 182.757812 164.933594 186.96875 164.152344 C 191.402344 163.332031 195.660156 161.789062 199.699219 159.785156 C 202.402344 158.457031 205.0625 156.949219 207.5 155.191406 C 209.777344 153.539062 211.894531 151.570312 213.777344 149.472656 C 216.46875 146.476562 219.351562 143.597656 221.191406 139.914062 C 222.4375 137.414062 223.953125 135.066406 225.242188 132.59375 C 226.027344 131.0625 226.863281 129.476562 227.234375 127.808594 C 228.144531 123.746094 228.738281 119.625 228.726562 115.425781 C 228.714844 110.472656 227.144531 105.890625 225.675781 101.304688 C 224.757812 98.441406 223.398438 95.71875 222.210938 92.941406 C 221.980469 92.417969 221.542969 91.496094 221.351562 91.53125 C 220.316406 91.722656 221.023438 92.472656 221.058594 93.011719 C 221.070312 93.191406 221.171875 93.359375 221.148438 93.527344 C 220.613281 97.820312 220.300781 102.148438 219.449219 106.378906 C 218.480469 111.199219 218.292969 116.175781 216.617188 120.871094 C 215.589844 123.730469 214.976562 126.738281 213.886719 129.5625 C 213.257812 131.15625 212.496094 132.742188 211.429688 134.171875 C 210.382812 135.554688 210.101562 137.339844 208.890625 138.746094 C 206.921875 141.023438 205.390625 143.683594 203.46875 146.003906 C 201.546875 148.332031 199.464844 150.558594 197.269531 152.636719 C 195.042969 154.753906 192.597656 156.648438 190.234375 158.605469 C 190 158.796875 189.550781 158.742188 189.207031 158.804688 C 189.289062 158.484375 189.324219 158.121094 189.480469 157.84375 C 189.585938 157.652344 189.871094 157.542969 190.066406 157.398438 C 195.363281 153.175781 200.015625 148.347656 204.035156 142.882812 C 204.957031 141.640625 205.796875 140.320312 206.863281 139.199219 C 209.355469 136.558594 210.707031 133.21875 212.335938 130.089844 C 213.492188 127.878906 213.957031 125.292969 214.621094 122.851562 C 215.394531 120.015625 216.164062 117.183594 216.71875 114.308594 C 217.257812 111.542969 217.546875 108.71875 217.933594 105.921875 C 218.457031 102.046875 218.980469 98.171875 219.5 94.308594 C 219.539062 94.0625 219.59375 93.8125 219.632812 93.566406 C 219.445312 93.703125 219.222656 93.800781 219.070312 93.96875 C 217.160156 96.25 215.347656 98.625 213.335938 100.808594 C 210.820312 103.539062 208.382812 106.296875 206.589844 109.574219 C 205.644531 111.308594 204.644531 113.015625 203.699219 114.753906 C 203.421875 115.273438 203.273438 115.867188 203.050781 116.433594 C 201.785156 119.820312 202.242188 123.230469 202.695312 126.710938 C 203.007812 128.996094 203.332031 131.40625 202.464844 134.058594 M 189.195312 13.636719 C 194.921875 13.945312 200.613281 13.769531 206.332031 13.261719 C 213.34375 12.640625 220.128906 11.238281 226.871094 9.410156 C 230.074219 8.546875 233.378906 8.101562 236.628906 7.40625 C 238.03125 7.109375 239.414062 6.65625 240.78125 6.226562 C 240.988281 6.160156 241.121094 5.871094 241.289062 5.695312 C 241.023438 5.644531 240.769531 5.542969 240.5 5.546875 C 236.476562 5.5625 232.453125 5.65625 228.4375 5.613281 C 225.269531 5.585938 222.082031 5.09375 218.945312 5.335938 C 212.984375 5.792969 207.0625 5.105469 201.125 5.171875 C 196.589844 5.21875 192.050781 5.082031 187.546875 5.429688 C 179.839844 6.011719 172.375 4.878906 164.988281 2.863281 C 161.496094 1.90625 158.011719 0.964844 154.539062 -0.0234375 C 154.105469 -0.15625 153.761719 -0.601562 153.378906 -0.898438 C 153.808594 -1.011719 154.222656 -1.144531 154.648438 -1.230469 C 154.890625 -1.277344 155.171875 -1.332031 155.398438 -1.257812 C 160.015625 0.078125 164.585938 1.570312 169.25 2.71875 C 172.140625 3.441406 175.164062 3.65625 178.117188 4.058594 C 184.554688 4.9375 191.007812 4.101562 197.433594 4.046875 C 202.886719 3.988281 208.3125 4.332031 213.75 4.253906 C 217.257812 4.203125 220.746094 4.160156 224.269531 4.433594 C 227.746094 4.707031 231.292969 3.960938 234.785156 4.738281 C 235.074219 4.800781 235.433594 4.539062 235.757812 4.4375 C 235.503906 4.210938 235.296875 3.828125 235.019531 3.769531 C 230.597656 2.914062 226.726562 0.601562 222.535156 -0.863281 C 219.984375 -1.742188 217.851562 -3.585938 215.15625 -4.355469 C 212.691406 -5.058594 210.410156 -6.519531 207.921875 -7.027344 C 203.28125 -7.96875 198.566406 -8.597656 193.859375 -9.070312 C 185.816406 -9.875 177.902344 -8.441406 170.039062 -7.101562 C 163.617188 -6.015625 157.203125 -4.726562 150.675781 -4.964844 C 147.804688 -5.066406 144.785156 -4.984375 142.042969 -6.269531 C 141.742188 -6.410156 141.398438 -6.449219 141.070312 -6.546875 C 141.210938 -6.144531 141.242188 -5.59375 141.515625 -5.382812 C 143.046875 -4.242188 144.664062 -3.210938 146.214844 -2.085938 C 148.15625 -0.671875 149.933594 0.957031 151.78125 2.457031 C 154.457031 4.617188 157.472656 6.070312 160.417969 7.625 C 162.777344 8.863281 165.574219 9.25 168.101562 10.214844 C 171.820312 11.652344 175.671875 12.417969 179.601562 12.890625 C 182.6875 13.265625 185.757812 13.46875 189.195312 13.636719 M 181.945312 69.617188 C 182.945312 68.207031 183.976562 66.796875 184.933594 65.363281 C 185.480469 64.542969 185.738281 63.449219 186.445312 62.847656 C 189.21875 60.488281 190.011719 57.085938 190.921875 53.933594 C 192.199219 49.542969 191.71875 44.949219 191.171875 40.429688 C 191.113281 39.976562 191.027344 39.53125 190.941406 39.078125 C 190.46875 39.21875 189.878906 39.242188 189.546875 39.53125 C 184.953125 43.632812 180.363281 47.746094 175.835938 51.925781 C 174.90625 52.785156 174.105469 53.859375 173.476562 54.957031 C 170.167969 60.734375 166.933594 66.550781 163.703125 72.359375 C 163.375 72.949219 163.175781 73.628906 163.035156 74.28125 C 162.355469 77.40625 161.914062 80.550781 162.5 83.753906 C 162.550781 84.035156 162.34375 84.355469 162.257812 84.660156 C 161.964844 84.425781 161.605469 84.238281 161.394531 83.9375 C 161.199219 83.65625 161.113281 83.257812 161.097656 82.910156 C 160.773438 78.109375 161.441406 73.457031 163.648438 69.171875 C 165.789062 65.023438 168.09375 60.9375 170.519531 56.945312 C 171.757812 54.90625 173.238281 52.949219 174.925781 51.289062 C 179.027344 47.265625 182.925781 43.003906 187.753906 39.792969 C 187.90625 39.695312 187.980469 39.484375 188.082031 39.332031 C 187.78125 39.316406 187.398438 39.171875 187.179688 39.304688 C 183.929688 41.214844 180.691406 43.144531 177.460938 45.089844 C 171.277344 48.835938 166.664062 54.246094 162.644531 60.0625 C 160.351562 63.367188 158.195312 66.890625 157.027344 70.882812 C 156.265625 73.46875 155.289062 75.992188 155.746094 78.769531 C 156.1875 81.496094 156.207031 84.378906 157.167969 86.902344 C 158.847656 91.292969 161.4375 95.265625 164.28125 99.03125 C 165.878906 101.152344 167.480469 103.273438 169.050781 105.421875 C 170.132812 106.902344 171.140625 108.425781 172.257812 109.871094 C 172.574219 110.285156 173.152344 110.511719 173.609375 110.824219 C 173.421875 110.382812 173.25 109.933594 173.023438 109.511719 C 171.964844 107.453125 170.792969 105.5 170.261719 103.132812 C 169.25 98.636719 170.070312 94.53125 172.042969 90.511719 C 173 88.554688 174.058594 86.617188 174.722656 84.550781 C 175.738281 81.386719 176.96875 78.363281 178.625 75.488281 C 179.664062 73.707031 180.664062 71.898438 181.945312 69.617188 M 233.566406 51.515625 C 235.390625 50.070312 237.25 48.664062 239.03125 47.171875 C 239.636719 46.664062 240.050781 45.925781 240.542969 45.300781 C 239.808594 45.632812 238.984375 45.847656 238.367188 46.320312 C 234.519531 49.289062 230.078125 51.207031 225.753906 53.242188 C 221.742188 55.121094 217.539062 56.691406 213.292969 57.960938 C 207.050781 59.824219 200.710938 61.339844 194.386719 62.921875 C 192.8125 63.320312 191.160156 63.601562 189.53125 63.621094 C 187.945312 63.632812 186.878906 64.257812 186.113281 65.519531 C 185.316406 66.816406 184.417969 68.117188 183.90625 69.535156 C 183.382812 70.972656 181.671875 71.660156 181.699219 73.367188 C 179.796875 74.804688 179.027344 76.882812 178.464844 79.085938 C 178.300781 79.753906 177.894531 80.359375 177.59375 80.992188 C 178.332031 80.703125 179.074219 80.414062 179.816406 80.140625 C 180.070312 80.042969 180.351562 80.019531 180.59375 79.914062 C 185.171875 77.949219 189.808594 76.082031 194.320312 73.964844 C 199 71.773438 203.527344 69.269531 208.179688 67.007812 C 214.023438 64.171875 219.601562 60.878906 225.082031 57.429688 C 227.898438 55.671875 230.511719 53.574219 233.566406 51.515625 M 209.871094 102.613281 C 210.21875 102.371094 210.609375 102.179688 210.886719 101.886719 C 211.800781 100.878906 212.65625 99.835938 213.539062 98.808594 C 214.476562 97.714844 215.414062 96.621094 216.324219 95.5 C 216.429688 95.363281 216.339844 95.070312 216.351562 94.851562 C 216.214844 94.945312 216.046875 95.019531 215.933594 95.140625 C 213.535156 97.835938 210.34375 99.765625 208.433594 102.945312 C 207.589844 104.347656 206.761719 105.925781 205.519531 106.886719 C 204.351562 107.785156 204.046875 109.035156 203.238281 110.046875 C 202.472656 111.011719 201.28125 111.90625 201.070312 112.984375 C 200.503906 115.90625 198.453125 117.980469 197.339844 120.566406 C 197.035156 121.285156 196.761719 122.003906 196.484375 122.722656 C 195 126.703125 195.242188 130.9375 194.773438 135.070312 C 194.3125 139.050781 193.789062 143.023438 191.492188 146.496094 C 191.320312 146.75 191.375 147.175781 191.328125 147.515625 C 191.707031 147.320312 192.183594 147.222656 192.4375 146.914062 C 194.367188 144.65625 196.378906 142.449219 198.132812 140.050781 C 201.21875 135.824219 202.425781 131.136719 201.378906 125.875 C 200.890625 123.402344 200.582031 120.835938 201.234375 118.34375 C 201.664062 116.699219 202.382812 115.113281 203.03125 113.535156 C 203.617188 112.089844 203.972656 110.375 204.996094 109.300781 C 206.796875 107.394531 207.839844 104.980469 209.871094 102.613281 M 181.164062 80.953125 C 180.5625 81.25 179.984375 81.753906 179.351562 81.824219 C 177.515625 82.035156 176.582031 83.171875 175.9375 84.726562 C 175.765625 85.136719 175.476562 85.496094 175.304688 85.90625 C 175.15625 86.273438 175.085938 86.671875 174.980469 87.0625 C 175.414062 86.8125 176.054688 86.675781 176.246094 86.308594 C 176.785156 85.269531 177.597656 84.628906 178.578125 84.035156 C 179.769531 83.3125 180.832031 82.371094 181.933594 81.511719 C 181.960938 81.46875 181.675781 81.070312 181.164062 80.953125 Z M 181.164062 80.953125 "
                fill-opacity="1" fill-rule="nonzero" />
        </g>
    </g>
</svg>