<svg xmlns="http://www.w3.org/2000/svg" xmlns:xlink="http://www.w3.org/1999/xlink" width="274" height="568"
    viewBox="0 0 274 568">
    <defs>
        <filter x="0%" y="0%" width="100%" height="100%" id="3abb807e0d">
            <feColorMatrix values="0 0 0 0 1 0 0 0 0 1 0 0 0 0 1 0 0 0 1 0" color-interpolation-filters="sRGB" />
        </filter>
        <mask id="62e5a8488c">
            <g filter="url(#3abb807e0d)">
                <rect x="-59.55" width="714.6" fill="#000000" y="-84.224998" height="1010.699974" fill-opacity="0.61" />
            </g>
        </mask>
        <clipPath id="48b7bed9c1">
            <rect x="0" width="220" y="0" height="327" />
        </clipPath>
        <clipPath id="c66bb13a73">
            <path
                d="M 360.765625 749.402344 C 359.808594 749.402344 359.03125 750.179688 359.03125 751.136719 C 359.03125 752.09375 359.808594 752.871094 360.765625 752.871094 C 361.722656 752.871094 362.5 752.09375 362.5 751.136719 C 362.5 750.179688 361.722656 749.402344 360.765625 749.402344 Z M 360.765625 749.402344 "
                clip-rule="nonzero" />
        </clipPath>
        <clipPath id="cb7f8f4285">
            <path
                d="M 261.535156 749.402344 C 260.578125 749.402344 259.800781 750.179688 259.800781 751.136719 C 259.800781 752.09375 260.578125 752.871094 261.535156 752.871094 C 262.492188 752.871094 263.269531 752.09375 263.269531 751.136719 C 263.269531 750.179688 262.492188 749.402344 261.535156 749.402344 Z M 261.535156 749.402344 "
                clip-rule="nonzero" />
        </clipPath>
    </defs>
    <rect width="274" height="568" fill="#7f6c5f" rx="10" />
    <g mask="url(#62e5a8488c)" transform="translate(0, 55) scale(0.9)">
        <g transform="matrix(1, 0, 0, 1, -0.000000000000000002, 245)">
            <g clip-path="url(#48b7bed9c1)">
                <path fill="#ffffff"
                    d="M -6.664062 219.371094 C -7.292969 220.445312 -7.875 221.339844 -8.222656 222.335938 C -8.878906 224.226562 -9.5625 226.140625 -9.925781 228.089844 C -10.617188 231.75 -11.292969 235.441406 -11.570312 239.15625 C -11.824219 242.640625 -11.574219 246.171875 -11.503906 249.675781 C -11.5 249.898438 -11.105469 250.121094 -10.894531 250.347656 C -10.730469 250.167969 -10.457031 250.015625 -10.421875 249.808594 C -9.09375 242.976562 -5.878906 236.980469 -2.234375 231.160156 C -1.679688 230.273438 -1.46875 229.628906 -1.914062 228.464844 C -3.078125 225.464844 -1.871094 222.886719 0.121094 220.550781 C 2.464844 217.8125 5.441406 217.792969 8.570312 218.453125 C 10.21875 218.800781 11.90625 220.742188 11.742188 222.394531 C 11.484375 224.875 11.601562 227.390625 10.527344 229.789062 C 8.570312 234.132812 4.875 234.328125 1.417969 232.722656 C -1.421875 231.394531 -1.113281 231.425781 -2.476562 233.875 C -4.933594 238.261719 -7.234375 242.769531 -8.503906 247.691406 C -8.96875 249.507812 -9.652344 251.269531 -10.160156 253.070312 C -10.882812 255.632812 -10.035156 258.15625 -9.710938 260.652344 C -9.179688 264.777344 -8.394531 268.859375 -7.519531 272.921875 C -6.261719 278.773438 -4.707031 284.5625 -3.515625 290.433594 C -2.734375 294.253906 -2.351562 298.167969 -1.835938 302.054688 C -1.585938 304.007812 -1.457031 305.976562 -1.257812 307.941406 C -1.230469 308.179688 -1.097656 308.402344 -1.015625 308.628906 C -0.898438 308.394531 -0.785156 308.15625 -0.683594 307.90625 C 0.078125 306.027344 0.902344 304.164062 1.585938 302.25 C 3.480469 296.984375 5.121094 291.601562 7.289062 286.445312 C 8.15625 284.378906 9.515625 282.527344 9.511719 280.179688 C 9.515625 278.445312 9.492188 276.710938 9.457031 274.972656 C 9.417969 273.230469 10.335938 271.496094 9.425781 269.75 C 9.316406 269.542969 9.359375 269.105469 9.507812 268.921875 C 10.753906 267.390625 10.261719 265.515625 10.546875 263.808594 C 11.167969 260.035156 11.613281 256.230469 12.285156 252.464844 C 12.867188 249.234375 13.640625 246.023438 14.363281 242.820312 C 15.816406 236.441406 17.90625 230.230469 20.292969 224.15625 C 21.796875 220.324219 23.949219 216.757812 25.828125 213.070312 C 27.738281 209.304688 29.664062 205.558594 31.636719 201.828125 C 32.054688 201.046875 32.679688 200.390625 33.230469 199.6875 C 34.542969 198.03125 35.285156 196.34375 34.730469 194.058594 C 34.078125 191.398438 34.113281 188.558594 33.394531 185.917969 C 32.316406 181.9375 30.847656 178.058594 29.554688 174.136719 C 29.191406 173.058594 28.761719 171.984375 28.46875 170.886719 C 27.3125 166.609375 24.683594 163.414062 21.359375 160.605469 C 17.484375 157.339844 13.597656 154.019531 10.714844 149.808594 C 9.257812 147.679688 8.152344 145.289062 7.066406 142.9375 C 5.929688 140.453125 4.585938 137.945312 4.105469 135.3125 C 3.457031 131.714844 2.488281 128.070312 3.109375 124.296875 C 3.339844 122.886719 2.914062 121.382812 3.03125 119.945312 C 3.730469 111.835938 6.105469 104.207031 9.644531 96.886719 C 11.878906 92.257812 14.972656 88.285156 18.421875 84.542969 C 20.484375 82.308594 22.59375 80.078125 24.949219 78.183594 C 29.269531 74.699219 34.175781 72.082031 39.160156 69.667969 C 40.039062 69.246094 41.230469 69.441406 42.273438 69.347656 C 41.890625 70.289062 41.632812 71.308594 41.09375 72.152344 C 37.933594 77.203125 35.613281 82.6875 33.8125 88.257812 C 31.558594 95.195312 31.390625 102.277344 34.265625 109.355469 C 36.277344 114.316406 38.089844 119.585938 37.945312 124.996094 C 37.832031 129.433594 37.808594 134.007812 36.230469 138.351562 C 35.617188 140.054688 35.625 141.945312 35.210938 143.757812 C 34.234375 148.082031 32.539062 152.046875 30.585938 155.964844 C 29.527344 158.089844 28.71875 160.34375 27.660156 162.46875 C 27.136719 163.515625 27.417969 164.375 27.78125 165.324219 C 29.1875 169.027344 30.660156 172.707031 31.972656 176.449219 C 33.335938 180.355469 34.734375 184.261719 35.25 188.398438 C 35.46875 190.167969 35.65625 191.945312 35.871094 193.714844 C 35.917969 194.058594 36 194.40625 36.054688 194.75 C 36.355469 194.507812 36.710938 194.320312 36.925781 194.015625 C 39.617188 190.277344 42.09375 186.363281 45.011719 182.816406 C 51.042969 175.535156 57.277344 168.429688 63.5 161.3125 C 65.824219 158.660156 66.980469 155.394531 68.585938 152.371094 C 69.742188 150.203125 70.414062 147.765625 71.628906 145.628906 C 72.941406 143.320312 72.109375 141.046875 72.035156 138.757812 C 71.917969 135.613281 70.453125 132.886719 68.753906 130.410156 C 67.589844 128.730469 65.8125 127.457031 64.242188 126.0625 C 60.8125 123.007812 56.8125 120.984375 52.5 119.5 C 52.222656 119.40625 51.957031 118.898438 51.914062 118.566406 C 51.796875 117.640625 52.492188 117.722656 53.023438 117.882812 C 55.078125 118.503906 57.164062 119.035156 59.140625 119.871094 C 62.710938 121.371094 66.496094 122.632812 69.632812 124.808594 C 72.722656 126.941406 76.269531 128.140625 79.230469 130.363281 C 80.046875 130.980469 80.175781 131.097656 80.640625 129.957031 C 82.253906 126.058594 84.132812 122.253906 85.855469 118.40625 C 86.394531 117.195312 86.972656 115.960938 87.230469 114.671875 C 87.828125 111.664062 88.09375 108.585938 88.78125 105.613281 C 89.394531 102.960938 89.84375 100.28125 90.550781 97.636719 C 91.25 95.019531 91.753906 92.332031 92.597656 89.726562 C 93.726562 86.238281 95.007812 82.792969 95.878906 79.238281 C 96.726562 75.828125 98.207031 72.726562 99.617188 69.566406 C 101.851562 64.515625 105.035156 60.042969 108.347656 55.703125 C 111.765625 51.214844 115.441406 46.898438 119.160156 42.660156 C 121.222656 40.308594 123.523438 38.148438 125.878906 36.085938 C 131.433594 31.25 137.066406 26.511719 142.691406 21.761719 C 144.199219 20.476562 145.730469 19.230469 147.300781 18.003906 C 147.527344 17.832031 147.949219 17.898438 148.28125 17.867188 C 148.25 18.191406 148.289062 18.558594 148.160156 18.832031 C 146.710938 21.742188 145.523438 24.742188 145.1875 28.007812 C 144.710938 32.554688 144.238281 37.085938 143.851562 41.636719 C 143.496094 45.761719 142.007812 49.59375 141.050781 53.570312 C 140.28125 56.742188 139.402344 59.824219 138.3125 62.898438 C 135.402344 71.101562 131.726562 78.851562 126.425781 85.851562 C 123.574219 89.613281 120.640625 93.3125 117.703125 97.015625 C 117.523438 97.230469 117.289062 97.390625 117.058594 97.578125 C 111.449219 102.34375 105.929688 107.222656 100.191406 111.832031 C 98.035156 113.5625 95.40625 114.710938 92.972656 116.101562 C 91.328125 117.03125 89.59375 117.800781 88.03125 118.832031 C 87.238281 119.351562 86.527344 120.210938 86.113281 121.070312 C 84.746094 123.933594 83.53125 126.863281 82.253906 129.765625 C 81.328125 131.839844 81.285156 131.910156 83.027344 132.878906 C 85.632812 134.339844 87.890625 136.207031 90.003906 138.304688 C 90.261719 138.566406 91.074219 138.660156 91.316406 138.460938 C 95.785156 134.707031 100.207031 130.878906 104.640625 127.078125 C 105.140625 126.644531 105.664062 126.226562 106.1875 125.808594 C 110.378906 122.375 114.636719 119.015625 118.742188 115.484375 C 123.050781 111.761719 127.230469 107.886719 131.445312 104.050781 C 132.679688 102.933594 133.996094 101.863281 135 100.566406 C 136.332031 98.820312 137.765625 97.007812 138.476562 94.976562 C 140.125 90.289062 142.289062 85.859375 144.421875 81.414062 C 144.652344 80.941406 144.785156 80.40625 144.988281 79.917969 C 145.445312 78.855469 145.570312 78.136719 144.339844 77.242188 C 142.832031 76.140625 141.675781 74.527344 142.492188 72.339844 C 142.652344 71.910156 142.664062 71.390625 142.644531 70.933594 C 142.507812 67.957031 144.367188 66.433594 146.777344 65.433594 C 149.742188 64.199219 153.667969 66.195312 154.261719 69.121094 C 155.105469 73.25 152.453125 77.644531 148.335938 78.527344 C 147.175781 78.777344 146.726562 78.980469 146.257812 80.160156 C 144.457031 84.652344 142.390625 89.039062 140.410156 93.472656 C 140.042969 94.308594 139.609375 95.128906 139.210938 95.960938 C 140.863281 96.53125 140.839844 94.792969 141.542969 94.160156 C 146.015625 90.113281 150.390625 85.96875 154.765625 81.8125 C 158.167969 78.574219 161.578125 75.324219 164.847656 71.957031 C 167.160156 69.566406 169.269531 66.96875 171.375 64.386719 C 171.882812 63.773438 172.433594 63.199219 171.183594 62.136719 C 169.664062 60.867188 169.3125 58.507812 169.371094 56.453125 C 169.527344 50.9375 171.351562 49.878906 176.285156 48.152344 C 177.164062 47.847656 178.46875 47.585938 179.117188 48 C 180.835938 49.097656 183.269531 49.820312 183.820312 51.871094 C 184.269531 53.535156 183.878906 55.621094 183.308594 57.324219 C 181.957031 61.351562 179.179688 63.699219 174.664062 63.460938 C 174.195312 63.441406 173.449219 63.746094 173.253906 64.128906 C 170.761719 68.867188 166.480469 72.066406 163.078125 76.007812 C 161.511719 77.835938 159.519531 79.28125 157.761719 80.960938 C 153.164062 85.359375 148.28125 89.464844 144.054688 94.238281 C 142.703125 95.761719 141.113281 97.0625 139.605469 98.441406 C 137.613281 100.265625 135.59375 102.074219 133.601562 103.898438 C 133.429688 104.050781 133.316406 104.273438 133.179688 104.457031 C 133.433594 104.519531 133.730469 104.707031 133.929688 104.636719 C 134.59375 104.386719 135.21875 104.019531 135.871094 103.746094 C 139.957031 101.996094 144.222656 100.945312 148.632812 100.417969 C 148.894531 100.390625 149.171875 100.367188 149.425781 100.3125 C 151.972656 99.730469 151.976562 99.71875 153.058594 97.335938 C 154.128906 94.976562 157.578125 92.8125 160.179688 92.992188 C 161.269531 93.074219 162.445312 93.191406 163.402344 93.664062 C 165.976562 94.949219 166.765625 97.636719 165.398438 100.253906 C 162.96875 104.878906 158.800781 105.886719 154.382812 103.84375 C 154.074219 103.695312 153.71875 103.464844 153.550781 103.1875 C 152.4375 101.121094 150.941406 101.871094 149.058594 102.027344 C 143.3125 102.511719 138.074219 104.679688 132.75 106.4375 C 130.539062 107.15625 128.371094 108.625 126.535156 110.554688 C 123.824219 113.417969 120.460938 115.667969 117.414062 118.222656 C 116.433594 119.039062 115.664062 120.109375 114.683594 120.925781 C 112.148438 123.074219 109.539062 125.164062 106.96875 127.269531 C 104.328125 129.433594 101.703125 131.585938 99.0625 133.75 C 98.550781 134.171875 98.003906 134.574219 97.527344 135.019531 C 96.390625 136.097656 95.289062 137.210938 94.152344 138.289062 C 93.820312 138.59375 93.40625 138.828125 93.007812 139.046875 C 91.378906 139.941406 91.324219 139.976562 92.46875 141.328125 C 95.945312 145.457031 97.507812 150.386719 98.085938 155.59375 C 98.355469 157.996094 97.652344 160.507812 97.460938 162.96875 C 97.394531 163.746094 97.566406 164.53125 97.628906 165.320312 C 98.363281 165.027344 99.097656 164.722656 99.84375 164.429688 C 100.253906 164.261719 100.65625 164.015625 101.078125 163.953125 C 106.167969 163.28125 109.515625 159.921875 112.820312 156.429688 C 115.601562 153.496094 118.574219 150.761719 121.332031 147.816406 C 122.980469 146.0625 124.328125 144.027344 125.917969 142.21875 C 126.59375 141.4375 126.722656 140.941406 125.964844 140.132812 C 124.253906 138.320312 123.683594 136.046875 124.5 133.742188 C 125.261719 131.574219 126.753906 129.816406 128.960938 128.847656 C 129.765625 128.496094 130.613281 127.980469 131.433594 127.984375 C 134.890625 127.988281 136.882812 129.894531 137.023438 133.613281 C 137.101562 135.695312 136.863281 137.847656 135.695312 139.753906 C 134.605469 141.527344 133.132812 142.695312 130.992188 142.210938 C 128.605469 141.660156 127.363281 142.632812 125.910156 144.511719 C 123.355469 147.808594 120.253906 150.667969 117.394531 153.726562 C 115.964844 155.253906 114.605469 156.851562 113.054688 158.265625 C 112.050781 159.183594 110.789062 159.816406 109.65625 160.601562 C 109.472656 160.726562 109.382812 160.964844 109.246094 161.160156 C 109.503906 161.226562 109.796875 161.398438 110 161.328125 C 112.804688 160.273438 115.605469 159.25 118.589844 158.761719 C 119.027344 158.6875 119.507812 158.1875 119.746094 157.753906 C 120.992188 155.59375 123.574219 153.347656 125.855469 153.117188 C 127.566406 152.945312 129.328125 153.460938 130.96875 154.011719 C 131.449219 154.179688 131.964844 155.011719 131.988281 155.574219 C 132.292969 162.101562 127.855469 165.183594 121.875 163.652344 C 120.945312 163.417969 120.140625 162.332031 119.480469 161.496094 C 118.667969 160.476562 117.847656 160.214844 116.59375 160.625 C 112.507812 161.96875 108.367188 163.1875 104.273438 164.503906 C 102.425781 165.089844 100.632812 165.839844 98.78125 166.359375 C 97.679688 166.667969 97.199219 167.457031 96.980469 168.347656 C 96.226562 171.351562 95.800781 174.453125 94.84375 177.394531 C 93.886719 180.316406 92.699219 183.222656 91.148438 185.859375 C 87.511719 191.996094 83.4375 197.839844 78.402344 202.976562 C 75.792969 205.640625 74.085938 209.03125 71.972656 212.082031 C 70.355469 214.414062 68.695312 216.703125 67.070312 219.03125 C 66.871094 219.300781 66.796875 219.660156 66.664062 219.972656 C 66.945312 219.882812 67.25 219.847656 67.496094 219.714844 C 73.035156 216.753906 78.570312 213.808594 84.082031 210.820312 C 87.40625 209.019531 90.679688 207.15625 93.992188 205.316406 C 94.613281 204.976562 95.320312 204.71875 95.871094 204.277344 C 103.359375 198.339844 110.753906 192.304688 118.324219 186.464844 C 123.183594 182.722656 128.472656 179.59375 133.640625 176.285156 C 139.910156 172.261719 146.621094 169.027344 152.84375 164.945312 C 154.476562 163.867188 156.292969 163.042969 158.070312 162.214844 C 160.558594 161.054688 163.03125 159.824219 165.621094 158.960938 C 169.113281 157.792969 172.710938 156.910156 176.273438 155.972656 C 181.628906 154.558594 186.988281 153.160156 192.375 151.839844 C 194.433594 151.339844 196.558594 151.082031 198.640625 150.726562 C 200.832031 150.355469 203.007812 149.984375 205.203125 149.667969 C 205.652344 149.59375 206.199219 149.636719 206.59375 149.832031 C 206.820312 149.945312 207.015625 150.707031 206.917969 150.777344 C 206.34375 151.191406 205.726562 151.625 205.042969 151.816406 C 203.253906 152.34375 202.058594 153.503906 200.683594 154.738281 C 197.164062 157.859375 194.238281 161.480469 191.042969 164.871094 C 187.035156 169.128906 183.109375 173.488281 178.804688 177.433594 C 175.203125 180.726562 171.355469 183.867188 167.207031 186.390625 C 159.625 191.027344 151.273438 194.113281 142.898438 196.988281 C 137.5 198.839844 131.964844 200.328125 126.410156 201.628906 C 122 202.667969 117.511719 203.355469 112.953125 203.660156 C 109.804688 203.871094 106.6875 204.761719 103.546875 205.285156 C 102.21875 205.507812 100.84375 205.433594 99.546875 205.738281 C 97.414062 206.230469 95.183594 206.621094 93.234375 207.578125 C 87.847656 210.199219 82.570312 213.054688 77.292969 215.886719 C 73.328125 218.007812 69.40625 220.191406 65.496094 222.410156 C 63.046875 223.800781 60.671875 225.285156 58.265625 226.769531 C 55.558594 228.445312 52.824219 230.09375 50.171875 231.863281 C 48.160156 233.203125 46.203125 234.640625 44.308594 236.148438 C 41.25 238.570312 38.273438 241.082031 35.253906 243.546875 C 32.628906 245.6875 30.660156 248.414062 28.527344 251.007812 C 25.132812 255.117188 22.878906 259.957031 20.023438 264.410156 C 19.855469 264.664062 19.882812 265.035156 19.824219 265.367188 C 20.113281 265.214844 20.4375 265.101562 20.679688 264.890625 C 24.257812 261.699219 28.472656 259.6875 32.898438 257.949219 C 35.421875 256.960938 37.773438 255.628906 39.957031 253.875 C 45.652344 249.300781 51.511719 244.910156 57.394531 240.574219 C 61.023438 237.910156 64.75 235.328125 68.59375 232.984375 C 72.109375 230.839844 75.757812 228.882812 79.5 227.179688 C 84.488281 224.917969 89.539062 222.785156 94.699219 220.988281 C 99.523438 219.300781 104.433594 217.792969 109.644531 217.578125 C 113.574219 217.40625 117.511719 216.515625 121.417969 216.605469 C 124.527344 216.675781 127.714844 216.757812 130.808594 217.914062 C 134.265625 219.207031 137.980469 219.796875 141.542969 220.804688 C 144.628906 221.667969 147.679688 222.609375 150.898438 222.890625 C 151.285156 222.929688 151.683594 223.28125 152.019531 223.5625 C 152.308594 223.800781 152.496094 224.132812 152.742188 224.429688 C 152.40625 224.515625 152.082031 224.636719 151.738281 224.667969 C 148.175781 224.96875 144.613281 224.71875 141.082031 225.855469 C 136.421875 227.351562 131.828125 228.957031 127.660156 231.53125 C 121.601562 235.277344 115.742188 239.378906 109.640625 243.050781 C 105.589844 245.492188 101.410156 247.882812 97.019531 249.550781 C 92.359375 251.304688 87.527344 252.820312 82.5 253.40625 C 79.597656 253.746094 76.710938 254.308594 73.820312 254.75 C 73.558594 254.789062 73.261719 254.746094 72.988281 254.734375 C 69.457031 254.578125 65.90625 254.1875 62.382812 254.335938 C 60.054688 254.429688 57.703125 254.066406 55.335938 254.640625 C 53.773438 255.019531 52.054688 254.851562 50.417969 254.78125 C 47.328125 254.644531 44.378906 255.421875 41.503906 256.269531 C 38.5625 257.152344 35.765625 258.507812 32.878906 259.617188 C 27.628906 261.628906 22.773438 264.289062 18.699219 268.175781 C 17.632812 269.195312 16.820312 270.546875 16.191406 271.894531 C 13.65625 277.316406 11.136719 282.753906 8.804688 288.261719 C 6.867188 292.820312 5.1875 297.492188 3.425781 302.132812 C 2.101562 305.613281 0.878906 309.132812 -0.496094 312.59375 C -2.976562 318.832031 -5.523438 325.050781 -8.070312 331.265625 C -10.070312 336.167969 -12.070312 341.085938 -14.117188 345.96875 C -16.066406 350.601562 -17.765625 355.378906 -20.144531 359.785156 C -23.382812 365.75 -26.871094 371.613281 -31.226562 376.871094 C -33.582031 379.703125 -35.03125 383.003906 -36.457031 386.332031 C -36.628906 386.730469 -37.078125 387.078125 -37.089844 387.46875 C -37.144531 388.648438 -37.921875 388.195312 -38.507812 388.203125 C -38.464844 387.773438 -38.523438 387.300781 -38.34375 386.925781 C -37.367188 384.859375 -36.128906 382.894531 -35.371094 380.75 C -34.269531 377.675781 -32.300781 375.171875 -30.40625 372.648438 C -27.851562 369.234375 -25.839844 365.519531 -23.59375 361.949219 C -20.554688 357.097656 -18.972656 351.65625 -16.503906 346.605469 C -14.132812 341.78125 -12.074219 336.804688 -10.019531 331.84375 C -8.050781 327.109375 -6.332031 322.269531 -4.375 317.519531 C -3.140625 314.550781 -2.476562 311.667969 -2.785156 308.324219 C -3.183594 304.046875 -3.691406 299.820312 -4.296875 295.5625 C -4.949219 291.074219 -5.816406 286.644531 -6.652344 282.207031 C -7.332031 278.65625 -8.304688 275.167969 -8.996094 271.628906 C -9.933594 266.855469 -10.65625 262.046875 -11.644531 257.28125 C -12.15625 254.789062 -13.050781 252.378906 -13.707031 249.925781 C -14.574219 246.699219 -15.375 243.460938 -16.230469 240.21875 C -17.195312 236.5625 -18.273438 232.949219 -19.484375 229.359375 C -20.703125 225.730469 -22.644531 222.445312 -23.867188 218.839844 C -24.179688 217.921875 -24.367188 217.1875 -25.757812 217.910156 C -27.847656 219.007812 -30.285156 218.453125 -32.292969 217.785156 C -33.570312 217.359375 -34.554688 215.472656 -35.25 214.035156 C -36.664062 211.078125 -35.425781 206.988281 -32.769531 204.953125 C -30.484375 203.210938 -28.089844 203.644531 -25.765625 204.707031 C -23.183594 205.890625 -21.433594 207.695312 -21.917969 210.867188 C -22.199219 212.667969 -21.917969 214.585938 -23.371094 216.085938 C -23.546875 216.277344 -23.425781 216.890625 -23.277344 217.242188 C -21.546875 221.222656 -19.625 225.117188 -18.054688 229.160156 C -16.113281 234.167969 -14.695312 239.355469 -13.800781 244.675781 C -13.742188 245.019531 -13.421875 245.324219 -13.21875 245.644531 C -13.105469 245.304688 -12.902344 244.957031 -12.894531 244.609375 C -12.882812 243.984375 -13.082031 243.351562 -13.035156 242.742188 C -12.945312 241.316406 -12.765625 239.898438 -12.625 238.476562 C -12.484375 237.054688 -12.171875 235.625 -12.257812 234.222656 C -12.320312 232.910156 -11.945312 231.617188 -11.699219 230.457031 C -11.007812 227.144531 -10.171875 223.863281 -9.722656 220.503906 C -9.671875 220.117188 -10.238281 219.527344 -10.097656 219.292969 C -8.765625 217.15625 -9.484375 214.683594 -8.886719 212.460938 C -8.234375 210.097656 -7.789062 207.703125 -7.640625 205.265625 C -7.582031 204.292969 -7.550781 203.199219 -7.9375 202.339844 C -10.683594 196.09375 -13.511719 189.878906 -16.40625 183.695312 C -16.859375 182.726562 -17.621094 181.855469 -19.050781 181.949219 C -21.414062 182.105469 -23.023438 180.445312 -24.726562 179.179688 C -27.058594 177.4375 -27.207031 171.433594 -23.988281 168.570312 C -22.570312 167.316406 -21.257812 165.90625 -19.011719 165.882812 C -15.488281 165.851562 -13.8125 168.039062 -12.179688 170.667969 C -10.304688 173.695312 -12.445312 177.800781 -14.363281 179.90625 C -15.871094 181.570312 -15.859375 181.46875 -14.875 183.625 C -13.480469 186.6875 -12.363281 189.863281 -10.859375 192.867188 C -9.628906 195.335938 -8.234375 197.71875 -7.375 200.363281 C -7.304688 200.578125 -7.019531 200.722656 -6.828125 200.898438 C -6.726562 200.648438 -6.570312 200.414062 -6.546875 200.15625 C -6.445312 199.398438 -6.421875 198.644531 -6.308594 197.882812 C -6.054688 196.371094 -5.96875 195.125 -7.671875 194.148438 C -8.832031 193.484375 -9.179688 191.992188 -9.046875 190.492188 C -8.808594 187.828125 -8.027344 185.492188 -5.78125 183.863281 C -4.136719 182.679688 -2.191406 182.664062 -0.464844 183.816406 C 2.113281 185.542969 2.992188 187.875 2.449219 190.976562 C 1.980469 193.605469 0.292969 194.847656 -1.886719 195.792969 C -2.214844 195.929688 -2.535156 196.132812 -2.875 196.164062 C -5.007812 196.355469 -4.957031 196.347656 -5.214844 198.292969 C -5.851562 203.160156 -6.605469 208.003906 -7.167969 212.863281 C -7.28125 213.882812 -8.621094 214.507812 -7.808594 215.917969 C -7.429688 216.582031 -8.199219 217.890625 -8.367188 218.917969 C -8.433594 219.339844 -8.3125 219.808594 -8.277344 220.253906 C -8.035156 219.914062 -7.792969 219.574219 -7.574219 219.230469 C -6.09375 216.9375 -4.785156 214.511719 -3.125 212.351562 C -0.539062 209.023438 2.257812 205.84375 5.035156 202.660156 C 5.609375 202 5.960938 201.761719 5.535156 200.648438 C 4.40625 197.679688 6.007812 195.113281 7.59375 192.765625 C 8.785156 191.019531 13.59375 190.164062 15.3125 191.117188 C 18.316406 192.785156 19.796875 198.488281 17.980469 201.414062 C 17.75 201.78125 17.503906 202.148438 17.257812 202.527344 C 14.84375 206.226562 11.496094 206.707031 8.105469 204.464844 C 6.671875 203.515625 5.925781 203.675781 5.039062 204.746094 C 0.980469 209.378906 -3.484375 213.75 -6.664062 219.371094 M 63.859375 180.339844 C 59.316406 184.0625 54.703125 187.714844 50.238281 191.539062 C 46.648438 194.625 43.15625 197.855469 39.765625 201.171875 C 36.355469 204.5 33.523438 208.339844 30.546875 212.050781 C 29.089844 213.863281 28.011719 215.917969 26.242188 217.570312 C 24.691406 219.023438 23.609375 221.105469 22.671875 223.085938 C 18.863281 231.082031 16.324219 239.492188 14.972656 248.253906 C 14.679688 250.15625 14.394531 252.097656 13.8125 253.917969 C 12.722656 257.253906 12.378906 260.730469 11.714844 264.132812 C 11.371094 265.898438 11.320312 267.71875 11.15625 269.515625 C 11.027344 270.835938 10.601562 272.226562 10.898438 273.457031 C 11.28125 275.085938 11.316406 276.472656 10.429688 277.898438 C 10.304688 278.105469 10.511719 278.519531 10.558594 278.835938 C 10.847656 278.695312 11.269531 278.632812 11.382812 278.410156 C 12.15625 276.933594 12.878906 275.425781 13.566406 273.902344 C 17.101562 266.113281 21.304688 258.707031 26.117188 251.628906 C 28.941406 247.472656 32.355469 243.820312 36.183594 240.585938 C 41.152344 236.382812 46.515625 232.6875 52.003906 229.175781 C 55.609375 226.871094 59.261719 224.636719 62.855469 222.332031 C 63.550781 221.878906 64.234375 221.308594 64.707031 220.636719 C 66.5625 217.953125 68.347656 215.21875 70.117188 212.488281 C 71.828125 209.824219 73.238281 206.914062 75.265625 204.519531 C 76.503906 203.050781 76.433594 201.777344 75.6875 200.621094 C 73.96875 197.960938 72.753906 195.113281 71.414062 192.28125 C 69.65625 188.558594 68.984375 184.824219 69.238281 180.808594 C 69.328125 179.511719 69.339844 178.207031 69.378906 176.90625 C 68.234375 177.644531 67.082031 178.363281 65.960938 179.140625 C 65.441406 179.503906 64.953125 179.964844 63.859375 180.339844 M 144.660156 21.761719 C 140.683594 25.019531 136.710938 28.277344 132.75 31.523438 C 132.238281 31.941406 131.675781 32.332031 131.214844 32.792969 C 128.421875 35.582031 125.617188 38.34375 122.882812 41.191406 C 120.175781 44.015625 117.496094 46.851562 114.945312 49.796875 C 112.308594 52.835938 109.660156 55.898438 107.363281 59.191406 C 105.203125 62.277344 103.398438 65.636719 101.59375 68.953125 C 99.554688 72.691406 97.929688 76.609375 96.828125 80.753906 C 95.933594 84.121094 94.695312 87.390625 93.699219 90.722656 C 92.863281 93.511719 92.179688 96.335938 91.59375 99.203125 C 90.859375 102.792969 90.035156 106.363281 89.457031 109.984375 C 89.347656 110.667969 88.855469 111.296875 88.738281 111.976562 C 88.605469 112.785156 88.691406 113.628906 88.671875 114.460938 C 89.050781 113.820312 89.488281 113.199219 89.792969 112.523438 C 90.589844 110.660156 91.351562 108.765625 92.074219 106.867188 C 92.902344 104.707031 93.714844 102.554688 94.441406 100.359375 C 95.59375 96.886719 96.632812 93.363281 97.800781 89.890625 C 98.785156 86.933594 99.855469 84.015625 100.914062 81.09375 C 102.027344 78.023438 103.714844 75.214844 105.101562 72.273438 C 107.410156 67.390625 110.492188 63.140625 113.851562 59.015625 C 116.570312 55.671875 119.273438 52.324219 122.148438 49.113281 C 125.054688 45.855469 128.152344 42.757812 131.179688 39.585938 C 132.824219 37.871094 134.46875 36.15625 136.160156 34.484375 C 136.898438 33.75 137.742188 33.113281 138.597656 32.507812 C 138.796875 32.371094 139.21875 32.582031 139.539062 32.628906 C 139.488281 32.882812 139.519531 33.226562 139.359375 33.378906 C 136.835938 35.828125 134.25 38.207031 131.773438 40.6875 C 129.007812 43.46875 126.242188 46.257812 123.652344 49.199219 C 120.699219 52.558594 117.945312 56.105469 115.101562 59.554688 C 110.730469 64.824219 107.1875 70.589844 104.226562 76.753906 C 102.335938 80.699219 100.964844 84.789062 99.476562 88.882812 C 97.796875 93.488281 96.441406 98.195312 94.886719 102.828125 C 93.261719 107.664062 91.929688 112.539062 88.402344 116.417969 C 88.269531 116.574219 88.351562 116.921875 88.324219 117.179688 C 88.542969 117.109375 88.765625 117.089844 88.945312 116.980469 C 90.347656 116.125 91.695312 115.175781 93.125 114.40625 C 96.847656 112.402344 100.554688 110.382812 103.710938 107.511719 C 107.855469 103.734375 112.089844 100.070312 116.140625 96.207031 C 118.429688 94.019531 120.605469 91.679688 122.476562 89.140625 C 125.714844 84.738281 128.980469 80.367188 131.488281 75.4375 C 133.300781 71.898438 134.960938 68.304688 136.394531 64.613281 C 137.546875 61.6875 138.28125 58.605469 139.207031 55.617188 C 140.796875 50.464844 142.058594 45.269531 142.816406 39.96875 C 143.296875 36.574219 142.824219 33.03125 143.445312 29.675781 C 143.890625 27.28125 143.808594 24.570312 145.617188 22.496094 C 146.105469 21.929688 145.753906 21.503906 144.660156 21.761719 M 158.230469 177.0625 C 152.550781 179.75 146.957031 182.625 141.667969 185.988281 C 134.320312 190.648438 126.433594 194.132812 118.355469 197.21875 C 113.5 199.070312 108.617188 200.820312 103.742188 202.632812 C 103.078125 202.878906 102.449219 203.195312 101.804688 203.496094 C 101.652344 203.570312 101.546875 203.730469 101.417969 203.863281 C 101.652344 203.976562 101.941406 204.226562 102.128906 204.167969 C 106.410156 202.949219 110.785156 202.390625 115.199219 201.808594 C 120.179688 201.167969 125.117188 200.171875 130.019531 199 C 135.605469 197.675781 141.050781 195.90625 146.386719 193.929688 C 153.953125 191.132812 161.535156 188.203125 168.367188 183.78125 C 170.304688 182.523438 172.269531 181.230469 174 179.707031 C 176.5 177.53125 178.847656 175.152344 181.191406 172.804688 C 183.191406 170.808594 185.128906 168.746094 187.054688 166.679688 C 190.03125 163.492188 192.949219 160.257812 195.949219 157.097656 C 197.289062 155.691406 198.769531 154.429688 200.171875 153.070312 C 200.34375 152.902344 200.398438 152.597656 200.515625 152.359375 C 200.335938 152.304688 200.140625 152.167969 199.996094 152.203125 C 197.242188 152.871094 194.390625 152.796875 191.640625 153.722656 C 188.238281 154.886719 184.65625 155.484375 181.164062 156.378906 C 176.398438 157.601562 171.59375 158.714844 166.894531 160.167969 C 163.867188 161.109375 161.007812 162.574219 158.09375 163.835938 C 156.785156 164.398438 155.441406 164.929688 154.257812 165.699219 C 148.128906 169.75 141.464844 172.882812 135.28125 176.851562 C 129.554688 180.523438 123.699219 183.960938 118.40625 188.273438 C 114.503906 191.460938 110.621094 194.675781 106.695312 197.835938 C 106.003906 198.394531 105.132812 198.738281 104.378906 199.25 C 102.925781 200.226562 101.480469 201.234375 100.074219 202.28125 C 99.875 202.429688 99.933594 202.894531 99.863281 203.210938 C 100.082031 203.117188 100.300781 203.035156 100.503906 202.921875 C 101.6875 202.296875 102.832031 201.550781 104.082031 201.074219 C 109.421875 199.019531 114.777344 196.992188 120.148438 195.035156 C 128.230469 192.078125 135.855469 188.175781 143.105469 183.597656 C 147.667969 180.710938 152.4375 178.261719 157.371094 176.117188 C 159.894531 175.023438 162.339844 173.753906 164.851562 172.632812 C 166.132812 172.066406 167.472656 171.585938 168.828125 171.210938 C 169.296875 171.089844 169.890625 171.410156 170.425781 171.527344 C 170.023438 171.800781 169.648438 172.15625 169.199219 172.34375 C 165.746094 174 162.28125 175.558594 158.230469 177.0625 M 25.753906 113.484375 C 25.949219 110.582031 25.617188 107.507812 26.457031 104.8125 C 27.625 101.042969 28.625 97.136719 30.84375 93.730469 C 31.273438 93.082031 31.433594 92.25 31.652344 91.476562 C 32.550781 88.472656 32.917969 85.144531 34.457031 82.519531 C 36.558594 78.957031 37.140625 74.539062 40.453125 71.660156 C 40.566406 71.554688 40.523438 71.078125 40.394531 70.921875 C 40.265625 70.78125 39.84375 70.699219 39.664062 70.800781 C 35.757812 73.097656 31.761719 75.246094 28.011719 77.785156 C 24.070312 80.460938 20.601562 83.753906 17.539062 87.402344 C 15.484375 89.835938 13.546875 92.421875 11.929688 95.15625 C 10.425781 97.722656 9.207031 100.523438 8.277344 103.351562 C 6.9375 107.394531 5.363281 111.398438 5.144531 115.746094 C 4.996094 118.691406 4.523438 121.605469 4.324219 124.546875 C 4.207031 126.363281 4.074219 128.253906 4.417969 130.023438 C 5.257812 134.34375 6.429688 138.582031 8.21875 142.648438 C 10.324219 147.433594 13.785156 151.207031 17.152344 155.023438 C 19.25 157.410156 21.71875 159.46875 24.046875 161.65625 C 24.488281 162.066406 25.304688 162.773438 25.472656 162.65625 C 26.398438 162.03125 25.394531 161.605469 25.132812 161.097656 C 25.046875 160.933594 24.875 160.8125 24.828125 160.636719 C 23.527344 156.257812 21.996094 151.929688 21.03125 147.476562 C 19.929688 142.398438 18 137.5 17.636719 132.246094 C 17.417969 129.042969 16.742188 125.871094 16.601562 122.671875 C 16.53125 120.867188 16.597656 119.007812 17.027344 117.171875 C 17.453125 115.386719 16.972656 113.539062 17.546875 111.667969 C 18.488281 108.628906 18.847656 105.402344 19.722656 102.347656 C 20.601562 99.277344 21.671875 96.238281 22.914062 93.296875 C 24.175781 90.304688 25.738281 87.433594 27.199219 84.539062 C 27.347656 84.253906 27.804688 84.117188 28.109375 83.910156 C 28.167969 84.257812 28.289062 84.621094 28.253906 84.957031 C 28.230469 85.1875 28 85.414062 27.875 85.636719 C 24.535156 91.972656 22.074219 98.613281 20.496094 105.605469 C 20.128906 107.199219 19.875 108.832031 19.320312 110.367188 C 18.023438 113.984375 18.128906 117.789062 17.878906 121.507812 C 17.695312 124.136719 18.339844 126.835938 18.730469 129.484375 C 19.183594 132.554688 19.636719 135.625 20.3125 138.640625 C 20.964844 141.550781 21.882812 144.40625 22.695312 147.277344 C 23.828125 151.25 24.957031 155.222656 26.09375 159.183594 C 26.160156 159.4375 26.210938 159.703125 26.277344 159.960938 C 26.402344 159.75 26.578125 159.558594 26.652344 159.332031 C 27.539062 156.3125 28.285156 153.246094 29.308594 150.28125 C 30.589844 146.574219 31.777344 142.867188 32.128906 138.9375 C 32.308594 136.855469 32.554688 134.78125 32.734375 132.699219 C 32.78125 132.078125 32.675781 131.441406 32.648438 130.796875 C 32.441406 126.980469 30.554688 123.871094 28.640625 120.695312 C 27.371094 118.613281 26.039062 116.421875 25.753906 113.484375 M 89.59375 224.460938 C 83.917969 226.585938 78.484375 229.164062 73.160156 232.082031 C 66.636719 235.648438 60.660156 239.882812 54.90625 244.503906 C 52.171875 246.699219 49.160156 248.523438 46.308594 250.578125 C 45.074219 251.460938 43.929688 252.480469 42.785156 253.476562 C 42.613281 253.628906 42.605469 253.96875 42.519531 254.207031 C 42.796875 254.144531 43.085938 254.132812 43.347656 254.015625 C 47.234375 252.300781 51.089844 250.503906 54.996094 248.84375 C 58.074219 247.53125 61.371094 246.65625 64.304688 245.09375 C 69.882812 242.125 75.90625 240.285156 81.628906 237.707031 C 85.996094 235.738281 90.453125 233.949219 94.667969 231.707031 C 101.878906 227.882812 109.585938 225.816406 117.59375 224.640625 C 121.378906 224.085938 125.152344 223.523438 128.933594 223.011719 C 129.410156 222.953125 129.929688 223.238281 130.425781 223.367188 C 130.058594 223.65625 129.714844 223.960938 129.335938 224.222656 C 129.125 224.371094 128.875 224.542969 128.621094 224.570312 C 123.585938 225.234375 118.53125 225.722656 113.527344 226.582031 C 110.421875 227.109375 107.40625 228.183594 104.375 229.042969 C 97.769531 230.917969 91.875 234.457031 85.679688 237.234375 C 80.421875 239.597656 75.023438 241.566406 69.792969 243.941406 C 66.417969 245.472656 63.058594 246.992188 59.535156 248.222656 C 56.046875 249.429688 52.933594 251.652344 49.222656 252.378906 C 48.914062 252.441406 48.679688 252.847656 48.40625 253.082031 C 48.75 253.195312 49.113281 253.476562 49.40625 253.414062 C 54.046875 252.375 58.777344 252.972656 63.453125 252.617188 C 66.292969 252.386719 69.140625 253.269531 72.078125 252.871094 C 74.761719 252.507812 77.585938 252.960938 80.210938 252.398438 C 85.105469 251.34375 89.9375 249.957031 94.695312 248.417969 C 102.820312 245.792969 109.875 241.054688 116.921875 236.429688 C 122.683594 232.65625 128.34375 228.691406 134.765625 226.15625 C 137.589844 225.042969 140.476562 223.683594 143.675781 223.765625 C 144.027344 223.773438 144.378906 223.667969 144.734375 223.625 C 144.429688 223.292969 144.167969 222.773438 143.808594 222.683594 C 141.847656 222.230469 139.84375 221.914062 137.863281 221.480469 C 135.386719 220.9375 132.976562 220.109375 130.554688 219.441406 C 127.046875 218.480469 123.511719 218.351562 120.003906 218.09375 C 117.191406 217.894531 114.320312 218.707031 111.464844 218.839844 C 107.257812 219.023438 103.203125 219.914062 99.199219 221.121094 C 96.054688 222.0625 92.996094 223.167969 89.59375 224.460938 M 72.910156 167.1875 C 72.535156 168.976562 72.136719 170.777344 71.816406 172.570312 C 71.636719 173.597656 71.847656 174.765625 71.417969 175.648438 C 69.734375 179.109375 70.40625 182.734375 70.859375 186.171875 C 71.480469 190.96875 73.890625 195.210938 76.335938 199.355469 C 76.582031 199.769531 76.855469 200.164062 77.128906 200.566406 C 77.527344 200.230469 78.089844 199.960938 78.289062 199.535156 C 81 193.621094 83.699219 187.691406 86.3125 181.730469 C 86.851562 180.503906 87.171875 179.128906 87.316406 177.796875 C 88.074219 170.804688 88.742188 163.800781 89.410156 156.808594 C 89.480469 156.097656 89.382812 155.359375 89.242188 154.667969 C 88.578125 151.351562 87.671875 148.121094 85.75 145.269531 C 85.582031 145.015625 85.644531 144.617188 85.601562 144.289062 C 85.980469 144.390625 86.410156 144.421875 86.742188 144.621094 C 87.050781 144.808594 87.300781 145.160156 87.464844 145.488281 C 89.808594 150 91.132812 154.789062 90.8125 159.871094 C 90.496094 164.796875 89.992188 169.730469 89.339844 174.621094 C 89 177.117188 88.398438 179.640625 87.464844 181.960938 C 85.199219 187.59375 83.230469 193.371094 79.914062 198.523438 C 79.808594 198.679688 79.824219 198.917969 79.792969 199.109375 C 80.089844 198.996094 80.523438 198.972656 80.675781 198.753906 C 83.015625 195.53125 85.332031 192.289062 87.636719 189.035156 C 92.039062 182.792969 94.210938 175.597656 95.644531 168.265625 C 96.460938 164.09375 97.058594 159.773438 96.5 155.410156 C 96.140625 152.585938 96.019531 149.730469 94.402344 147.234375 C 92.816406 144.78125 91.582031 141.996094 89.578125 139.960938 C 86.09375 136.417969 81.90625 133.667969 77.554688 131.230469 C 75.109375 129.851562 72.664062 128.476562 70.234375 127.058594 C 68.554688 126.085938 66.9375 125.039062 65.242188 124.113281 C 64.761719 123.84375 64.105469 123.871094 63.53125 123.761719 C 63.898438 124.109375 64.253906 124.472656 64.652344 124.785156 C 66.550781 126.332031 68.511719 127.726562 70.027344 129.792969 C 72.914062 133.71875 73.855469 138.035156 73.648438 142.765625 C 73.550781 145.0625 73.34375 147.390625 73.574219 149.671875 C 73.933594 153.164062 74.023438 156.617188 73.636719 160.097656 C 73.382812 162.265625 73.183594 164.4375 72.910156 167.1875 M 30.59375 206.574219 C 29.4375 208.742188 28.234375 210.894531 27.144531 213.09375 C 26.769531 213.839844 26.679688 214.730469 26.46875 215.546875 C 27.042969 214.910156 27.75 214.355469 28.144531 213.636719 C 30.613281 209.132812 34.101562 205.398438 37.425781 201.589844 C 40.515625 198.074219 43.917969 194.773438 47.492188 191.75 C 52.746094 187.300781 58.246094 183.148438 63.699219 178.941406 C 65.054688 177.886719 66.535156 176.914062 68.101562 176.207031 C 69.632812 175.523438 70.402344 174.464844 70.605469 172.921875 C 70.832031 171.324219 71.148438 169.6875 71.046875 168.097656 C 70.945312 166.484375 72.308594 165.09375 71.558594 163.453125 C 72.792969 161.253906 72.660156 158.917969 72.269531 156.546875 C 72.144531 155.828125 72.285156 155.074219 72.304688 154.332031 C 71.710938 154.925781 71.117188 155.519531 70.511719 156.097656 C 70.308594 156.300781 70.046875 156.441406 69.859375 156.644531 C 66.257812 160.488281 62.554688 164.257812 59.085938 168.21875 C 55.484375 172.324219 52.15625 176.664062 48.613281 180.824219 C 44.15625 186.042969 40.152344 191.597656 36.304688 197.253906 C 34.320312 200.148438 32.679688 203.285156 30.59375 206.574219 M 31.898438 147.066406 C 31.664062 147.449219 31.367188 147.796875 31.222656 148.199219 C 30.761719 149.5625 30.378906 150.933594 29.957031 152.300781 C 29.511719 153.757812 29.070312 155.214844 28.660156 156.6875 C 28.617188 156.863281 28.828125 157.109375 28.910156 157.324219 C 29.003906 157.175781 29.136719 157.035156 29.191406 156.871094 C 30.371094 153.242188 32.648438 150.023438 33.152344 146.136719 C 33.371094 144.421875 33.507812 142.542969 34.304688 141.082031 C 35.050781 139.722656 34.820312 138.382812 35.171875 137.0625 C 35.503906 135.804688 36.28125 134.433594 36.027344 133.296875 C 35.339844 130.230469 36.445312 127.351562 36.429688 124.375 C 36.417969 123.554688 36.382812 122.742188 36.34375 121.929688 C 36.097656 117.445312 34.066406 113.445312 32.773438 109.25 C 31.53125 105.199219 30.355469 101.128906 31.113281 96.796875 C 31.171875 96.476562 30.933594 96.085938 30.839844 95.738281 C 30.554688 96.089844 30.136719 96.386719 30.015625 96.792969 C 29.105469 99.792969 28.09375 102.785156 27.410156 105.847656 C 26.210938 111.246094 27.027344 116.296875 30.273438 120.949219 C 31.789062 123.132812 33.175781 125.488281 33.597656 128.179688 C 33.878906 129.953125 33.855469 131.792969 33.898438 133.59375 C 33.941406 135.242188 34.324219 137.054688 33.785156 138.527344 C 32.851562 141.136719 32.863281 143.914062 31.898438 147.066406 M 68.863281 155.882812 C 69.324219 155.339844 69.667969 154.605469 70.25 154.273438 C 71.9375 153.292969 72.359375 151.792969 72.328125 150.015625 C 72.324219 149.546875 72.449219 149.078125 72.441406 148.605469 C 72.429688 148.1875 72.328125 147.773438 72.265625 147.351562 C 71.949219 147.773438 71.390625 148.175781 71.359375 148.617188 C 71.277344 149.847656 70.761719 150.8125 70.066406 151.800781 C 69.214844 153.007812 68.585938 154.367188 67.882812 155.667969 C 67.875 155.71875 68.320312 155.984375 68.863281 155.882812 Z M 68.863281 155.882812 "
                    fill-opacity="1" fill-rule="nonzero" />
            </g>
        </g>
    </g>

    <g transform="translate(-30, -55) scale(0.75)">
        <path fill="#ffffff"
            d="M347.2,762.1c6.2-7.7-1.9-12.4-7.4-7.7c-2,1.7-3.5,4.2-4,8.4c-0.5-4.1,0.2-7.4,2.5-9.7 C346.2,745.1,356.9,756.6,347.2,762.1"
            fill-opacity="1" fill-rule="evenodd" />
        <path fill="#ffffff"
            d="M317.7,760.4c-5.5,5.9-7.9,12.4,2.7,9.5c9.1-2.5,16.2-8.1,28,0.1c-12.4-5.1-20.4,0-27.4,2 C310,775.4,308.2,766.1,317.7,760.4"
            fill-opacity="1" fill-rule="evenodd" />
        <path fill="#ffffff"
            d="M334.4,757.7c-5.2-4-12.2-2.7-20.3,2.5c-5.8,3.7-10.5,6.9-16.7,7.3c-9.5,0.6-17.2-5.3-26.8,1.1 c7-7.7,17.9-2.2,26.5-3.1c6-0.6,10.4-3.8,16.1-7.1C324.1,752.1,330.5,752.9,334.4,757.7"
            fill-opacity="1" fill-rule="evenodd" />
        <path fill="#ffffff" d="M301.3,747.2c2.7,4.7,5.8,8.6,9.2,11.6C305.4,757.4,302.6,753.2,301.3,747.2"
            fill-opacity="1" fill-rule="evenodd" />
        <path fill="#ffffff"
            d="M289.5,763.6c4.7-4.1,4-13.8,4.1-17.5c0.1-2.8,0.5-5.4,3.2-6.9c4.5-2.6,4.7-1.3,6-6.9c0.4-1.6,0.7-3.4,1.1-4.9 c2.2-8.1,12.7-3.7,9.3,4.7c-1.7,4.3-6.3,9.5-9.6,3.7c1.3,7.3,9,2.9,11.2-3.1c3.6-9.6-9.3-15.6-12.2-5.5c-0.4,1.5-0.8,3.2-1.2,4.7 c-1,3.9-1.1,3.4-4.4,4.8c-4.5,1.9-5.1,5-5.2,9.4C291.6,750.3,292,758.1,289.5,763.6"
            fill-opacity="1" fill-rule="evenodd" />
        <path fill="#ffffff" d="M317.2,754.7c-8.2-4.4-4.3-12.9-14.2-15.2C311.4,743.5,309.2,755.5,317.2,754.7"
            fill-opacity="1" fill-rule="evenodd" />
        <path fill="#ffffff" d="M304.3,723.5c-1.7-5.3,4.9-6.2,4.2-1.6C307.3,718.9,304.2,720,304.3,723.5"
            fill-opacity="1" fill-rule="evenodd" />
        <path fill="#ffffff"
            d="M311.1,700c13.9,0,26.6,5.6,35.7,14.8c5.5,5.5,9.7,12.2,12.2,19.6h-0.7c-2.5-7.3-6.6-13.8-11.9-19.1 c-9-9-21.5-14.6-35.2-14.6c-13.8,0-26.2,5.6-35.2,14.6c-5.3,5.3-9.4,11.9-11.9,19.1h-0.7c2.5-7.5,6.7-14.2,12.2-19.6 C284.6,705.6,297.2,700,311.1,700z"
            fill-opacity="1" fill-rule="evenodd" />
        <path fill="#ffffff"
            d="M311.1,799.9c13.9,0,26.6-5.7,35.7-14.8c5.5-5.5,9.7-12.2,12.2-19.6h-0.7c-2.5,7.3-6.6,13.8-11.9,19.1 c-9,9-21.5,14.6-35.2,14.6c-13.8,0-26.2-5.6-35.2-14.6c-5.3-5.3-9.4-11.9-11.9-19.1h-0.7c2.5,7.5,6.7,14.2,12.2,19.6 C284.6,794.2,297.2,799.9,311.1,799.9z"
            fill-opacity="1" fill-rule="evenodd" />
        <g clip-path="url(#c66bb13a73)">
            <path fill="#ffffff"
                d="M 359.03125 749.402344 L 362.5 749.402344 L 362.5 752.871094 L 359.03125 752.871094 Z M 359.03125 749.402344 "
                fill-opacity="1" fill-rule="nonzero" />
        </g>
        <g clip-path="url(#cb7f8f4285)">
            <path fill="#ffffff"
                d="M 259.800781 749.402344 L 263.269531 749.402344 L 263.269531 752.871094 L 259.800781 752.871094 Z M 259.800781 749.402344 "
                fill-opacity="1" fill-rule="nonzero" />
        </g>
    </g>
</svg>