<svg xmlns="http://www.w3.org/2000/svg" width="40" height="40" viewBox="0 0 40 40">
    <g fill="none" fill-rule="evenodd">
        <circle cx="20" cy="20" r="20" fill="#7F6C5F" />
        <g transform="translate(-74, -205) scale(0.3)">
            <path fill="#ffffff"
                d="M347.2,762.1c6.2-7.7-1.9-12.4-7.4-7.7c-2,1.7-3.5,4.2-4,8.4c-0.5-4.1,0.2-7.4,2.5-9.7 C346.2,745.1,356.9,756.6,347.2,762.1"
                fill-opacity="1" fill-rule="evenodd" />
            <path fill="#ffffff"
                d="M317.7,760.4c-5.5,5.9-7.9,12.4,2.7,9.5c9.1-2.5,16.2-8.1,28,0.1c-12.4-5.1-20.4,0-27.4,2 C310,775.4,308.2,766.1,317.7,760.4"
                fill-opacity="1" fill-rule="evenodd" />
            <path fill="#ffffff"
                d="M334.4,757.7c-5.2-4-12.2-2.7-20.3,2.5c-5.8,3.7-10.5,6.9-16.7,7.3c-9.5,0.6-17.2-5.3-26.8,1.1 c7-7.7,17.9-2.2,26.5-3.1c6-0.6,10.4-3.8,16.1-7.1C324.1,752.1,330.5,752.9,334.4,757.7"
                fill-opacity="1" fill-rule="evenodd" />
            <path fill="#ffffff" d="M301.3,747.2c2.7,4.7,5.8,8.6,9.2,11.6C305.4,757.4,302.6,753.2,301.3,747.2"
                fill-opacity="1" fill-rule="evenodd" />
            <path fill="#ffffff"
                d="M289.5,763.6c4.7-4.1,4-13.8,4.1-17.5c0.1-2.8,0.5-5.4,3.2-6.9c4.5-2.6,4.7-1.3,6-6.9c0.4-1.6,0.7-3.4,1.1-4.9 c2.2-8.1,12.7-3.7,9.3,4.7c-1.7,4.3-6.3,9.5-9.6,3.7c1.3,7.3,9,2.9,11.2-3.1c3.6-9.6-9.3-15.6-12.2-5.5c-0.4,1.5-0.8,3.2-1.2,4.7 c-1,3.9-1.1,3.4-4.4,4.8c-4.5,1.9-5.1,5-5.2,9.4C291.6,750.3,292,758.1,289.5,763.6"
                fill-opacity="1" fill-rule="evenodd" />
            <path fill="#ffffff" d="M317.2,754.7c-8.2-4.4-4.3-12.9-14.2-15.2C311.4,743.5,309.2,755.5,317.2,754.7"
                fill-opacity="1" fill-rule="evenodd" />
            <path fill="#ffffff" d="M304.3,723.5c-1.7-5.3,4.9-6.2,4.2-1.6C307.3,718.9,304.2,720,304.3,723.5"
                fill-opacity="1" fill-rule="evenodd" />
        </g>
    </g>
</svg>